<svg id="middle_server" data-name="middle server" xmlns="http://www.w3.org/2000/svg" viewBox="0 0 143.21 159.12"><defs><style>.cls-1,.cls-9{opacity:0.25;}.cls-2{fill:#12303a;}.cls-3{fill:#64c0f2;}.cls-4{fill:#4c9bbe;}.cls-5{fill:#f1f0ed;}.cls-6{fill:#7aff6c;}.cls-14,.cls-7{fill:#3c3c3c;}.cls-8{fill:#ff817e;}.cls-9{fill:#fff;}.cls-10,.cls-11,.cls-12,.cls-13,.cls-15,.cls-16{fill:none;stroke-linejoin:round;}.cls-10{stroke:#12303a;}.cls-10,.cls-11,.cls-12{stroke-linecap:round;}.cls-11,.cls-12,.cls-13,.cls-14,.cls-15,.cls-16{stroke:#1f4d59;}.cls-11,.cls-15{stroke-width:2px;}.cls-14{stroke-miterlimit:10;}.cls-16{stroke-linecap:square;}</style></defs><title>middle-server</title><g id="back_server" data-name="back server"><g class="cls-1"><path class="cls-2" d="M2357.5,2085.57v-.75h-11.62v-19.62h-.75v23.63h-1.25v-23.62h-.75v23.63h-.62a.38.38,0,0,0-.37.38v3a.38.38,0,0,0,.38.38h.63v45.25h-.62a.38.38,0,0,0-.37.38v3a.38.38,0,0,0,.38.38h.63v1.25h-5.62a.38.38,0,0,0-.37.38v4a.38.38,0,0,0,.38.38h10a.38.38,0,0,0,.38-.37v-5.62h.63a.38.38,0,0,0,.38-.37v-3a.38.38,0,0,0-.37-.37h-.62v-45.25h.63a.38.38,0,0,0,.38-.37v-3a.38.38,0,0,0-.37-.37h-.62v-1.25h9.63v-.75h-10a.38.38,0,0,0-.37.38v1.63h-1.25v-3.25Zm-13.62,7h1.25v45.25h-1.25Zm-.37,51a.38.38,0,0,0,.38-.37v-1.62h1.25v3.25h-7.25v-1.25Zm3.63,3.25h-9.25v-1.25h7.63a.38.38,0,0,0,.38-.37v-3.62h1.25Zm1-6h-5.25v-2.25h5.25Zm-1-3h-1.25v-45.25h1.25Zm1-46h-5.25v-2.25h5.25Z" transform="translate(-2214.29 -2049.57)"/><circle class="cls-2" cx="130.21" cy="90.09" r="0.5"/><circle class="cls-2" cx="132.21" cy="90.09" r="0.5"/><circle class="cls-2" cx="130.21" cy="41.09" r="0.5"/><circle class="cls-2" cx="132.21" cy="41.09" r="0.5"/><path class="cls-2" d="M2331.13,2201.79h-39.4V2050.17a.6.6,0,0,0-.6-.6h-70a.6.6,0,0,0-.6.6v151.63h-5.86a.38.38,0,0,0,0,.75h116.46a.37.37,0,0,0,0-.75Zm-109.4-151h68.8v151h-68.8Z" transform="translate(-2214.29 -2049.57)"/><path class="cls-2" d="M2286.13,2054.71h-60a.6.6,0,0,0-.6.6V2198a.6.6,0,0,0,.6.6h60a.6.6,0,0,0,.6-.6V2055.31A.6.6,0,0,0,2286.13,2054.71Zm-.6,142.71h-58.8V2055.91h58.8Z" transform="translate(-2214.29 -2049.57)"/><path class="cls-2" d="M2228.13,2069.68h56a.38.38,0,0,0,.38-.37v-12a.38.38,0,0,0-.37-.37h-56a.38.38,0,0,0-.37.38v12A.38.38,0,0,0,2228.13,2069.68Zm.38-12h55.25v11.25H2228.5Z" transform="translate(-2214.29 -2049.57)"/><path class="cls-2" d="M2282.13,2058.93h-52a.38.38,0,0,0-.37.38v8a.38.38,0,0,0,.38.38h52a.38.38,0,0,0,.38-.37v-8A.38.38,0,0,0,2282.13,2058.93Zm-.37,2h-1.25v-1.25h1.25Zm-8,2h-1.25v-1.25h1.25Zm.75-1.25h1.25v1.25h-1.25Zm-2.75,1.25h-1.25v-1.25h1.25Zm-2,0h-1.25v-1.25h1.25Zm-2,0h-1.25v-1.25h1.25Zm-2,0h-1.25v-1.25h1.25Zm-2,0h-1.25v-1.25h1.25Zm-2,0h-1.25v-1.25h1.25Zm-2,0h-1.25v-1.25h1.25Zm-2,0h-1.25v-1.25h1.25Zm-2,0h-1.25v-1.25h1.25Zm-2,0h-1.25v-1.25h1.25Zm-2,0h-1.25v-1.25h1.25Zm-2,0h-1.25v-1.25h1.25Zm-2,0h-1.25v-1.25h1.25Zm-2,0h-1.25v-1.25h1.25Zm-2,0h-1.25v-1.25h1.25Zm-2,0h-1.25v-1.25h1.25Zm-2,0h-1.25v-1.25h1.25Zm-2,0h-1.25v-1.25h1.25Zm-2,0h-1.25v-1.25h1.25Zm0,.75v1.25h-1.25v-1.25Zm.75,0h1.25v1.25h-1.25Zm2,0h1.25v1.25h-1.25Zm2,0h1.25v1.25h-1.25Zm2,0h1.25v1.25h-1.25Zm2,0h1.25v1.25h-1.25Zm2,0h1.25v1.25h-1.25Zm2,0h1.25v1.25h-1.25Zm2,0h1.25v1.25h-1.25Zm2,0h1.25v1.25h-1.25Zm2,0h1.25v1.25h-1.25Zm2,0h1.25v1.25h-1.25Zm2,0h1.25v1.25h-1.25Zm2,0h1.25v1.25h-1.25Zm2,0h1.25v1.25h-1.25Zm2,0h1.25v1.25h-1.25Zm2,0h1.25v1.25h-1.25Zm2,0h1.25v1.25h-1.25Zm2,0h1.25v1.25h-1.25Zm2,0h1.25v1.25h-1.25Zm2,0h1.25v1.25h-1.25Zm2,0h1.25v1.25h-1.25Zm0-.75v-1.25h1.25v1.25Zm2-1.25h1.25v1.25h-1.25Zm0-.75v-1.25h1.25v1.25Zm-.75,0h-1.25v-1.25h1.25Zm-2,0h-1.25v-1.25h1.25Zm-2,0h-1.25v-1.25h1.25Zm-2,0h-1.25v-1.25h1.25Zm-2,0h-1.25v-1.25h1.25Zm-2,0h-1.25v-1.25h1.25Zm-2,0h-1.25v-1.25h1.25Zm-2,0h-1.25v-1.25h1.25Zm-2,0h-1.25v-1.25h1.25Zm-2,0h-1.25v-1.25h1.25Zm-2,0h-1.25v-1.25h1.25Zm-2,0h-1.25v-1.25h1.25Zm-2,0h-1.25v-1.25h1.25Zm-2,0h-1.25v-1.25h1.25Zm-2,0h-1.25v-1.25h1.25Zm-2,0h-1.25v-1.25h1.25Zm-2,0h-1.25v-1.25h1.25Zm-2,0h-1.25v-1.25h1.25Zm-2,0h-1.25v-1.25h1.25Zm-2,0h-1.25v-1.25h1.25Zm-2,0h-1.25v-1.25h1.25Zm-2,0h-1.25v-1.25h1.25Zm-2,0h-1.25v-1.25h1.25Zm0,.75v1.25h-1.25v-1.25Zm-2,1.25h-1.25v-1.25h1.25Zm0,.75v1.25h-1.25v-1.25Zm.75,0h1.25v1.25h-1.25Zm1.25,2v1.25h-1.25v-1.25Zm.75,0h1.25v1.25h-1.25Zm2,0h1.25v1.25h-1.25Zm2,0h1.25v1.25h-1.25Zm2,0h1.25v1.25h-1.25Zm2,0h1.25v1.25h-1.25Zm2,0h1.25v1.25h-1.25Zm2,0h1.25v1.25h-1.25Zm2,0h1.25v1.25h-1.25Zm2,0h1.25v1.25h-1.25Zm2,0h1.25v1.25h-1.25Zm2,0h1.25v1.25h-1.25Zm2,0h1.25v1.25h-1.25Zm2,0h1.25v1.25h-1.25Zm2,0h1.25v1.25h-1.25Zm2,0h1.25v1.25h-1.25Zm2,0h1.25v1.25h-1.25Zm2,0h1.25v1.25h-1.25Zm2,0h1.25v1.25h-1.25Zm2,0h1.25v1.25h-1.25Zm2,0h1.25v1.25h-1.25Zm2,0h1.25v1.25h-1.25Zm2,0h1.25v1.25h-1.25Zm2,0h1.25v1.25h-1.25Zm0-.75v-1.25h1.25v1.25Zm2-1.25h1.25v1.25h-1.25Zm0-.75v-1.25h1.25v1.25Zm-48.75-3.25v1.25h-1.25v-1.25Zm-1.25,6h1.25v1.25h-1.25Zm50,1.25v-1.25h1.25v1.25Z" transform="translate(-2214.29 -2049.57)"/><path class="cls-2" d="M2228.13,2087.68h56a.38.38,0,0,0,.38-.37v-16a.38.38,0,0,0-.37-.37h-56a.38.38,0,0,0-.37.38v16A.38.38,0,0,0,2228.13,2087.68Zm.38-16h55.25v15.25H2228.5Z" transform="translate(-2214.29 -2049.57)"/><path class="cls-2" d="M2280.13,2073.93h-12a1.38,1.38,0,0,0-1.37,1.38v8a1.38,1.38,0,0,0,1.38,1.38h12a1.38,1.38,0,0,0,1.38-1.37v-8A1.38,1.38,0,0,0,2280.13,2073.93Zm.63,9.38a.63.63,0,0,1-.62.63h-12a.63.63,0,0,1-.62-.62v-8a.63.63,0,0,1,.63-.62h12a.63.63,0,0,1,.63.63Z" transform="translate(-2214.29 -2049.57)"/><path class="cls-2" d="M2263.13,2073.93h-24a1.38,1.38,0,0,0-1.37,1.38v2a1.38,1.38,0,0,0,1.38,1.38h24a1.38,1.38,0,0,0,1.38-1.37v-2A1.38,1.38,0,0,0,2263.13,2073.93Zm.63,3.38a.63.63,0,0,1-.62.63h-24a.63.63,0,0,1-.62-.62v-2a.63.63,0,0,1,.63-.62h24a.63.63,0,0,1,.63.63Z" transform="translate(-2214.29 -2049.57)"/><path class="cls-2" d="M2263.13,2079.93h-24a1.38,1.38,0,0,0-1.37,1.38v2a1.38,1.38,0,0,0,1.38,1.38h24a1.38,1.38,0,0,0,1.38-1.37v-2A1.38,1.38,0,0,0,2263.13,2079.93Zm.63,3.38a.63.63,0,0,1-.62.63h-24a.63.63,0,0,1-.62-.62v-2a.63.63,0,0,1,.63-.62h24a.63.63,0,0,1,.63.63Z" transform="translate(-2214.29 -2049.57)"/><path class="cls-2" d="M2233.13,2075.93a3.38,3.38,0,1,0,3.38,3.38A3.38,3.38,0,0,0,2233.13,2075.93Zm0,6a2.63,2.63,0,1,1,2.63-2.62A2.63,2.63,0,0,1,2233.13,2081.93Z" transform="translate(-2214.29 -2049.57)"/><path class="cls-2" d="M2233.13,2077.93a1.38,1.38,0,1,0,1.38,1.38A1.38,1.38,0,0,0,2233.13,2077.93Zm0,2a.63.63,0,1,1,.63-.62A.63.63,0,0,1,2233.13,2079.93Z" transform="translate(-2214.29 -2049.57)"/><path class="cls-2" d="M2270.13,2075.93a1.38,1.38,0,1,0,1.38,1.38A1.38,1.38,0,0,0,2270.13,2075.93Zm0,2a.63.63,0,1,1,.63-.62A.63.63,0,0,1,2270.13,2077.93Z" transform="translate(-2214.29 -2049.57)"/><path class="cls-2" d="M2270.13,2079.93a1.38,1.38,0,1,0,1.38,1.38A1.38,1.38,0,0,0,2270.13,2079.93Zm0,2a.63.63,0,1,1,.63-.62A.63.63,0,0,1,2270.13,2081.93Z" transform="translate(-2214.29 -2049.57)"/><path class="cls-2" d="M2274.13,2075.93a1.38,1.38,0,1,0,1.38,1.38A1.38,1.38,0,0,0,2274.13,2075.93Zm0,2a.63.63,0,1,1,.63-.62A.63.63,0,0,1,2274.13,2077.93Z" transform="translate(-2214.29 -2049.57)"/><path class="cls-2" d="M2274.13,2079.93a1.38,1.38,0,1,0,1.38,1.38A1.38,1.38,0,0,0,2274.13,2079.93Zm0,2a.63.63,0,1,1,.63-.62A.63.63,0,0,1,2274.13,2081.93Z" transform="translate(-2214.29 -2049.57)"/><path class="cls-2" d="M2278.13,2075.93a1.38,1.38,0,1,0,1.38,1.38A1.38,1.38,0,0,0,2278.13,2075.93Zm0,2a.63.63,0,1,1,.63-.62A.63.63,0,0,1,2278.13,2077.93Z" transform="translate(-2214.29 -2049.57)"/><path class="cls-2" d="M2278.13,2079.93a1.38,1.38,0,1,0,1.38,1.38A1.38,1.38,0,0,0,2278.13,2079.93Zm0,2a.63.63,0,1,1,.63-.62A.63.63,0,0,1,2278.13,2081.93Z" transform="translate(-2214.29 -2049.57)"/><rect class="cls-2" x="25.83" y="26.37" width="22" height="0.75"/><rect class="cls-2" x="25.83" y="32.37" width="22" height="0.75"/><path class="cls-2" d="M2228.13,2105.68h56a.38.38,0,0,0,.38-.37v-16a.38.38,0,0,0-.37-.37h-56a.38.38,0,0,0-.37.38v16A.38.38,0,0,0,2228.13,2105.68Zm.38-16h55.25v15.25H2228.5Z" transform="translate(-2214.29 -2049.57)"/><path class="cls-2" d="M2280.13,2091.93h-12a1.38,1.38,0,0,0-1.37,1.38v8a1.38,1.38,0,0,0,1.38,1.38h12a1.38,1.38,0,0,0,1.38-1.37v-8A1.38,1.38,0,0,0,2280.13,2091.93Zm.63,9.38a.63.63,0,0,1-.62.63h-12a.63.63,0,0,1-.62-.62v-8a.63.63,0,0,1,.63-.62h12a.63.63,0,0,1,.63.63Z" transform="translate(-2214.29 -2049.57)"/><path class="cls-2" d="M2263.13,2091.93h-24a1.38,1.38,0,0,0-1.37,1.38v2a1.38,1.38,0,0,0,1.38,1.38h24a1.38,1.38,0,0,0,1.38-1.37v-2A1.38,1.38,0,0,0,2263.13,2091.93Zm.63,3.38a.63.63,0,0,1-.62.63h-24a.63.63,0,0,1-.62-.62v-2a.63.63,0,0,1,.63-.62h24a.63.63,0,0,1,.63.63Z" transform="translate(-2214.29 -2049.57)"/><path class="cls-2" d="M2263.13,2097.93h-24a1.38,1.38,0,0,0-1.37,1.38v2a1.38,1.38,0,0,0,1.38,1.38h24a1.38,1.38,0,0,0,1.38-1.37v-2A1.38,1.38,0,0,0,2263.13,2097.93Zm.63,3.38a.63.63,0,0,1-.62.63h-24a.63.63,0,0,1-.62-.62v-2a.63.63,0,0,1,.63-.62h24a.63.63,0,0,1,.63.63Z" transform="translate(-2214.29 -2049.57)"/><path class="cls-2" d="M2233.13,2093.93a3.38,3.38,0,1,0,3.38,3.38A3.38,3.38,0,0,0,2233.13,2093.93Zm0,6a2.63,2.63,0,1,1,2.63-2.62A2.63,2.63,0,0,1,2233.13,2099.93Z" transform="translate(-2214.29 -2049.57)"/><path class="cls-2" d="M2233.13,2095.93a1.38,1.38,0,1,0,1.38,1.38A1.38,1.38,0,0,0,2233.13,2095.93Zm0,2a.63.63,0,1,1,.63-.62A.63.63,0,0,1,2233.13,2097.93Z" transform="translate(-2214.29 -2049.57)"/><path class="cls-2" d="M2270.13,2093.93a1.38,1.38,0,1,0,1.38,1.38A1.38,1.38,0,0,0,2270.13,2093.93Zm0,2a.63.63,0,1,1,.63-.62A.63.63,0,0,1,2270.13,2095.93Z" transform="translate(-2214.29 -2049.57)"/><path class="cls-2" d="M2270.13,2097.93a1.38,1.38,0,1,0,1.38,1.38A1.38,1.38,0,0,0,2270.13,2097.93Zm0,2a.63.63,0,1,1,.63-.62A.63.63,0,0,1,2270.13,2099.93Z" transform="translate(-2214.29 -2049.57)"/><path class="cls-2" d="M2274.13,2093.93a1.38,1.38,0,1,0,1.38,1.38A1.38,1.38,0,0,0,2274.13,2093.93Zm0,2a.63.63,0,1,1,.63-.62A.63.63,0,0,1,2274.13,2095.93Z" transform="translate(-2214.29 -2049.57)"/><path class="cls-2" d="M2274.13,2097.93a1.38,1.38,0,1,0,1.38,1.38A1.38,1.38,0,0,0,2274.13,2097.93Zm0,2a.63.63,0,1,1,.63-.62A.63.63,0,0,1,2274.13,2099.93Z" transform="translate(-2214.29 -2049.57)"/><path class="cls-2" d="M2278.13,2093.93a1.38,1.38,0,1,0,1.38,1.38A1.38,1.38,0,0,0,2278.13,2093.93Zm0,2a.63.63,0,1,1,.63-.62A.63.63,0,0,1,2278.13,2095.93Z" transform="translate(-2214.29 -2049.57)"/><path class="cls-2" d="M2278.13,2097.93a1.38,1.38,0,1,0,1.38,1.38A1.38,1.38,0,0,0,2278.13,2097.93Zm0,2a.63.63,0,1,1,.63-.62A.63.63,0,0,1,2278.13,2099.93Z" transform="translate(-2214.29 -2049.57)"/><rect class="cls-2" x="25.83" y="44.37" width="22" height="0.75"/><rect class="cls-2" x="25.83" y="50.37" width="22" height="0.75"/><path class="cls-2" d="M2228.13,2123.68h56a.38.38,0,0,0,.38-.37v-16a.38.38,0,0,0-.37-.37h-56a.38.38,0,0,0-.37.38v16A.38.38,0,0,0,2228.13,2123.68Zm.38-16h55.25v15.25H2228.5Z" transform="translate(-2214.29 -2049.57)"/><path class="cls-2" d="M2280.13,2109.93h-12a1.38,1.38,0,0,0-1.37,1.38v8a1.38,1.38,0,0,0,1.38,1.38h12a1.38,1.38,0,0,0,1.38-1.37v-8A1.38,1.38,0,0,0,2280.13,2109.93Zm.63,9.38a.63.63,0,0,1-.62.63h-12a.63.63,0,0,1-.62-.62v-8a.63.63,0,0,1,.63-.62h12a.63.63,0,0,1,.63.63Z" transform="translate(-2214.29 -2049.57)"/><path class="cls-2" d="M2263.13,2109.93h-24a1.38,1.38,0,0,0-1.37,1.38v2a1.38,1.38,0,0,0,1.38,1.38h24a1.38,1.38,0,0,0,1.38-1.37v-2A1.38,1.38,0,0,0,2263.13,2109.93Zm.63,3.38a.63.63,0,0,1-.62.63h-24a.63.63,0,0,1-.62-.62v-2a.63.63,0,0,1,.63-.62h24a.63.63,0,0,1,.63.63Z" transform="translate(-2214.29 -2049.57)"/><path class="cls-2" d="M2263.13,2115.93h-24a1.38,1.38,0,0,0-1.37,1.38v2a1.38,1.38,0,0,0,1.38,1.38h24a1.38,1.38,0,0,0,1.38-1.37v-2A1.38,1.38,0,0,0,2263.13,2115.93Zm.63,3.38a.63.63,0,0,1-.62.63h-24a.63.63,0,0,1-.62-.62v-2a.63.63,0,0,1,.63-.62h24a.63.63,0,0,1,.63.63Z" transform="translate(-2214.29 -2049.57)"/><path class="cls-2" d="M2233.13,2111.93a3.38,3.38,0,1,0,3.38,3.38A3.38,3.38,0,0,0,2233.13,2111.93Zm0,6a2.63,2.63,0,1,1,2.63-2.62A2.63,2.63,0,0,1,2233.13,2117.93Z" transform="translate(-2214.29 -2049.57)"/><path class="cls-2" d="M2233.13,2113.93a1.38,1.38,0,1,0,1.38,1.38A1.38,1.38,0,0,0,2233.13,2113.93Zm0,2a.63.63,0,1,1,.63-.62A.63.63,0,0,1,2233.13,2115.93Z" transform="translate(-2214.29 -2049.57)"/><path class="cls-2" d="M2270.13,2111.93a1.38,1.38,0,1,0,1.38,1.38A1.38,1.38,0,0,0,2270.13,2111.93Zm0,2a.63.63,0,1,1,.63-.62A.63.63,0,0,1,2270.13,2113.93Z" transform="translate(-2214.29 -2049.57)"/><path class="cls-2" d="M2270.13,2115.93a1.38,1.38,0,1,0,1.38,1.38A1.38,1.38,0,0,0,2270.13,2115.93Zm0,2a.63.63,0,1,1,.63-.62A.63.63,0,0,1,2270.13,2117.93Z" transform="translate(-2214.29 -2049.57)"/><path class="cls-2" d="M2274.13,2111.93a1.38,1.38,0,1,0,1.38,1.38A1.38,1.38,0,0,0,2274.13,2111.93Zm0,2a.63.63,0,1,1,.63-.62A.63.63,0,0,1,2274.13,2113.93Z" transform="translate(-2214.29 -2049.57)"/><path class="cls-2" d="M2274.13,2115.93a1.38,1.38,0,1,0,1.38,1.38A1.38,1.38,0,0,0,2274.13,2115.93Zm0,2a.63.63,0,1,1,.63-.62A.63.63,0,0,1,2274.13,2117.93Z" transform="translate(-2214.29 -2049.57)"/><path class="cls-2" d="M2278.13,2111.93a1.38,1.38,0,1,0,1.38,1.38A1.38,1.38,0,0,0,2278.13,2111.93Zm0,2a.63.63,0,1,1,.63-.62A.63.63,0,0,1,2278.13,2113.93Z" transform="translate(-2214.29 -2049.57)"/><path class="cls-2" d="M2278.13,2115.93a1.38,1.38,0,1,0,1.38,1.38A1.38,1.38,0,0,0,2278.13,2115.93Zm0,2a.63.63,0,1,1,.63-.62A.63.63,0,0,1,2278.13,2117.93Z" transform="translate(-2214.29 -2049.57)"/><rect class="cls-2" x="25.83" y="62.37" width="22" height="0.75"/><rect class="cls-2" x="25.83" y="68.37" width="22" height="0.75"/><path class="cls-2" d="M2228.13,2141.68h56a.38.38,0,0,0,.38-.37v-16a.38.38,0,0,0-.37-.37h-56a.38.38,0,0,0-.37.38v16A.38.38,0,0,0,2228.13,2141.68Zm.38-16h55.25v15.25H2228.5Z" transform="translate(-2214.29 -2049.57)"/><path class="cls-2" d="M2280.13,2127.93h-12a1.38,1.38,0,0,0-1.37,1.38v8a1.38,1.38,0,0,0,1.38,1.38h12a1.38,1.38,0,0,0,1.38-1.37v-8A1.38,1.38,0,0,0,2280.13,2127.93Zm.63,9.38a.63.63,0,0,1-.62.63h-12a.63.63,0,0,1-.62-.62v-8a.63.63,0,0,1,.63-.62h12a.63.63,0,0,1,.63.63Z" transform="translate(-2214.29 -2049.57)"/><path class="cls-2" d="M2263.13,2127.93h-24a1.38,1.38,0,0,0-1.37,1.38v2a1.38,1.38,0,0,0,1.38,1.38h24a1.38,1.38,0,0,0,1.38-1.37v-2A1.38,1.38,0,0,0,2263.13,2127.93Zm.63,3.38a.63.63,0,0,1-.62.63h-24a.63.63,0,0,1-.62-.62v-2a.63.63,0,0,1,.63-.62h24a.63.63,0,0,1,.63.63Z" transform="translate(-2214.29 -2049.57)"/><path class="cls-2" d="M2263.13,2133.93h-24a1.38,1.38,0,0,0-1.37,1.38v2a1.38,1.38,0,0,0,1.38,1.38h24a1.38,1.38,0,0,0,1.38-1.37v-2A1.38,1.38,0,0,0,2263.13,2133.93Zm.63,3.38a.63.63,0,0,1-.62.63h-24a.63.63,0,0,1-.62-.62v-2a.63.63,0,0,1,.63-.62h24a.63.63,0,0,1,.63.63Z" transform="translate(-2214.29 -2049.57)"/><path class="cls-2" d="M2233.13,2129.93a3.38,3.38,0,1,0,3.38,3.38A3.38,3.38,0,0,0,2233.13,2129.93Zm0,6a2.63,2.63,0,1,1,2.63-2.62A2.63,2.63,0,0,1,2233.13,2135.93Z" transform="translate(-2214.29 -2049.57)"/><path class="cls-2" d="M2233.13,2131.93a1.38,1.38,0,1,0,1.38,1.38A1.38,1.38,0,0,0,2233.13,2131.93Zm0,2a.63.63,0,1,1,.63-.62A.63.63,0,0,1,2233.13,2133.93Z" transform="translate(-2214.29 -2049.57)"/><path class="cls-2" d="M2270.13,2129.93a1.38,1.38,0,1,0,1.38,1.38A1.38,1.38,0,0,0,2270.13,2129.93Zm0,2a.63.63,0,1,1,.63-.62A.63.63,0,0,1,2270.13,2131.93Z" transform="translate(-2214.29 -2049.57)"/><path class="cls-2" d="M2270.13,2133.93a1.38,1.38,0,1,0,1.38,1.38A1.38,1.38,0,0,0,2270.13,2133.93Zm0,2a.63.63,0,1,1,.63-.62A.63.63,0,0,1,2270.13,2135.93Z" transform="translate(-2214.29 -2049.57)"/><path class="cls-2" d="M2274.13,2129.93a1.38,1.38,0,1,0,1.38,1.38A1.38,1.38,0,0,0,2274.13,2129.93Zm0,2a.63.63,0,1,1,.63-.62A.63.63,0,0,1,2274.13,2131.93Z" transform="translate(-2214.29 -2049.57)"/><path class="cls-2" d="M2274.13,2133.93a1.38,1.38,0,1,0,1.38,1.38A1.38,1.38,0,0,0,2274.13,2133.93Zm0,2a.63.63,0,1,1,.63-.62A.63.63,0,0,1,2274.13,2135.93Z" transform="translate(-2214.29 -2049.57)"/><path class="cls-2" d="M2278.13,2129.93a1.38,1.38,0,1,0,1.38,1.38A1.38,1.38,0,0,0,2278.13,2129.93Zm0,2a.63.63,0,1,1,.63-.62A.63.63,0,0,1,2278.13,2131.93Z" transform="translate(-2214.29 -2049.57)"/><path class="cls-2" d="M2278.13,2133.93a1.38,1.38,0,1,0,1.38,1.38A1.38,1.38,0,0,0,2278.13,2133.93Zm0,2a.63.63,0,1,1,.63-.62A.63.63,0,0,1,2278.13,2135.93Z" transform="translate(-2214.29 -2049.57)"/><rect class="cls-2" x="25.83" y="80.37" width="22" height="0.75"/><rect class="cls-2" x="25.83" y="86.37" width="22" height="0.75"/><path class="cls-2" d="M2228.13,2159.68h56a.38.38,0,0,0,.38-.37v-16a.38.38,0,0,0-.37-.37h-56a.38.38,0,0,0-.37.38v16A.38.38,0,0,0,2228.13,2159.68Zm.38-16h55.25v15.25H2228.5Z" transform="translate(-2214.29 -2049.57)"/><path class="cls-2" d="M2280.13,2145.93h-12a1.38,1.38,0,0,0-1.37,1.38v8a1.38,1.38,0,0,0,1.38,1.38h12a1.38,1.38,0,0,0,1.38-1.37v-8A1.38,1.38,0,0,0,2280.13,2145.93Zm.63,9.38a.63.63,0,0,1-.62.63h-12a.63.63,0,0,1-.62-.62v-8a.63.63,0,0,1,.63-.62h12a.63.63,0,0,1,.63.63Z" transform="translate(-2214.29 -2049.57)"/><path class="cls-2" d="M2263.13,2145.93h-24a1.38,1.38,0,0,0-1.37,1.38v2a1.38,1.38,0,0,0,1.38,1.38h24a1.38,1.38,0,0,0,1.38-1.37v-2A1.38,1.38,0,0,0,2263.13,2145.93Zm.63,3.38a.63.63,0,0,1-.62.63h-24a.63.63,0,0,1-.62-.62v-2a.63.63,0,0,1,.63-.62h24a.63.63,0,0,1,.63.63Z" transform="translate(-2214.29 -2049.57)"/><path class="cls-2" d="M2263.13,2151.93h-24a1.38,1.38,0,0,0-1.37,1.38v2a1.38,1.38,0,0,0,1.38,1.38h24a1.38,1.38,0,0,0,1.38-1.37v-2A1.38,1.38,0,0,0,2263.13,2151.93Zm.63,3.38a.63.63,0,0,1-.62.63h-24a.63.63,0,0,1-.62-.62v-2a.63.63,0,0,1,.63-.62h24a.63.63,0,0,1,.63.63Z" transform="translate(-2214.29 -2049.57)"/><path class="cls-2" d="M2233.13,2147.93a3.38,3.38,0,1,0,3.38,3.38A3.38,3.38,0,0,0,2233.13,2147.93Zm0,6a2.63,2.63,0,1,1,2.63-2.62A2.63,2.63,0,0,1,2233.13,2153.93Z" transform="translate(-2214.29 -2049.57)"/><path class="cls-2" d="M2233.13,2149.93a1.38,1.38,0,1,0,1.38,1.38A1.38,1.38,0,0,0,2233.13,2149.93Zm0,2a.63.63,0,1,1,.63-.62A.63.63,0,0,1,2233.13,2151.93Z" transform="translate(-2214.29 -2049.57)"/><path class="cls-2" d="M2270.13,2147.93a1.38,1.38,0,1,0,1.38,1.38A1.38,1.38,0,0,0,2270.13,2147.93Zm0,2a.63.63,0,1,1,.63-.62A.63.63,0,0,1,2270.13,2149.93Z" transform="translate(-2214.29 -2049.57)"/><path class="cls-2" d="M2270.13,2151.93a1.38,1.38,0,1,0,1.38,1.38A1.38,1.38,0,0,0,2270.13,2151.93Zm0,2a.63.63,0,1,1,.63-.62A.63.63,0,0,1,2270.13,2153.93Z" transform="translate(-2214.29 -2049.57)"/><path class="cls-2" d="M2274.13,2147.93a1.38,1.38,0,1,0,1.38,1.38A1.38,1.38,0,0,0,2274.13,2147.93Zm0,2a.63.63,0,1,1,.63-.62A.63.63,0,0,1,2274.13,2149.93Z" transform="translate(-2214.29 -2049.57)"/><path class="cls-2" d="M2274.13,2151.93a1.38,1.38,0,1,0,1.38,1.38A1.38,1.38,0,0,0,2274.13,2151.93Zm0,2a.63.63,0,1,1,.63-.62A.63.63,0,0,1,2274.13,2153.93Z" transform="translate(-2214.29 -2049.57)"/><path class="cls-2" d="M2278.13,2147.93a1.38,1.38,0,1,0,1.38,1.38A1.38,1.38,0,0,0,2278.13,2147.93Zm0,2a.63.63,0,1,1,.63-.62A.63.63,0,0,1,2278.13,2149.93Z" transform="translate(-2214.29 -2049.57)"/><path class="cls-2" d="M2278.13,2151.93a1.38,1.38,0,1,0,1.38,1.38A1.38,1.38,0,0,0,2278.13,2151.93Zm0,2a.63.63,0,1,1,.63-.62A.63.63,0,0,1,2278.13,2153.93Z" transform="translate(-2214.29 -2049.57)"/><rect class="cls-2" x="25.83" y="98.37" width="22" height="0.75"/><rect class="cls-2" x="25.83" y="104.37" width="22" height="0.75"/><path class="cls-2" d="M2228.13,2177.68h56a.38.38,0,0,0,.38-.37v-16a.38.38,0,0,0-.37-.37h-56a.38.38,0,0,0-.37.38v16A.38.38,0,0,0,2228.13,2177.68Zm.38-16h55.25v15.25H2228.5Z" transform="translate(-2214.29 -2049.57)"/><path class="cls-2" d="M2280.13,2163.93h-12a1.38,1.38,0,0,0-1.37,1.38v8a1.38,1.38,0,0,0,1.38,1.38h12a1.38,1.38,0,0,0,1.38-1.37v-8A1.38,1.38,0,0,0,2280.13,2163.93Zm.63,9.38a.63.63,0,0,1-.62.63h-12a.63.63,0,0,1-.62-.62v-8a.63.63,0,0,1,.63-.62h12a.63.63,0,0,1,.63.63Z" transform="translate(-2214.29 -2049.57)"/><path class="cls-2" d="M2263.13,2163.93h-24a1.38,1.38,0,0,0-1.37,1.38v2a1.38,1.38,0,0,0,1.38,1.38h24a1.38,1.38,0,0,0,1.38-1.37v-2A1.38,1.38,0,0,0,2263.13,2163.93Zm.63,3.38a.63.63,0,0,1-.62.63h-24a.63.63,0,0,1-.62-.62v-2a.63.63,0,0,1,.63-.62h24a.63.63,0,0,1,.63.63Z" transform="translate(-2214.29 -2049.57)"/><path class="cls-2" d="M2263.13,2169.93h-24a1.38,1.38,0,0,0-1.37,1.38v2a1.38,1.38,0,0,0,1.38,1.38h24a1.38,1.38,0,0,0,1.38-1.37v-2A1.38,1.38,0,0,0,2263.13,2169.93Zm.63,3.38a.63.63,0,0,1-.62.63h-24a.63.63,0,0,1-.62-.62v-2a.63.63,0,0,1,.63-.62h24a.63.63,0,0,1,.63.63Z" transform="translate(-2214.29 -2049.57)"/><path class="cls-2" d="M2233.13,2165.93a3.38,3.38,0,1,0,3.38,3.38A3.38,3.38,0,0,0,2233.13,2165.93Zm0,6a2.63,2.63,0,1,1,2.63-2.62A2.63,2.63,0,0,1,2233.13,2171.93Z" transform="translate(-2214.29 -2049.57)"/><path class="cls-2" d="M2233.13,2167.93a1.38,1.38,0,1,0,1.38,1.38A1.38,1.38,0,0,0,2233.13,2167.93Zm0,2a.63.63,0,1,1,.63-.62A.63.63,0,0,1,2233.13,2169.93Z" transform="translate(-2214.29 -2049.57)"/><path class="cls-2" d="M2270.13,2165.93a1.38,1.38,0,1,0,1.38,1.38A1.38,1.38,0,0,0,2270.13,2165.93Zm0,2a.63.63,0,1,1,.63-.62A.63.63,0,0,1,2270.13,2167.93Z" transform="translate(-2214.29 -2049.57)"/><path class="cls-2" d="M2270.13,2169.93a1.38,1.38,0,1,0,1.38,1.38A1.38,1.38,0,0,0,2270.13,2169.93Zm0,2a.63.63,0,1,1,.63-.62A.63.63,0,0,1,2270.13,2171.93Z" transform="translate(-2214.29 -2049.57)"/><path class="cls-2" d="M2274.13,2165.93a1.38,1.38,0,1,0,1.38,1.38A1.38,1.38,0,0,0,2274.13,2165.93Zm0,2a.63.63,0,1,1,.63-.62A.63.63,0,0,1,2274.13,2167.93Z" transform="translate(-2214.29 -2049.57)"/><path class="cls-2" d="M2274.13,2169.93a1.38,1.38,0,1,0,1.38,1.38A1.38,1.38,0,0,0,2274.13,2169.93Zm0,2a.63.63,0,1,1,.63-.62A.63.63,0,0,1,2274.13,2171.93Z" transform="translate(-2214.29 -2049.57)"/><path class="cls-2" d="M2278.13,2165.93a1.38,1.38,0,1,0,1.38,1.38A1.38,1.38,0,0,0,2278.13,2165.93Zm0,2a.63.63,0,1,1,.63-.62A.63.63,0,0,1,2278.13,2167.93Z" transform="translate(-2214.29 -2049.57)"/><path class="cls-2" d="M2278.13,2169.93a1.38,1.38,0,1,0,1.38,1.38A1.38,1.38,0,0,0,2278.13,2169.93Zm0,2a.63.63,0,1,1,.63-.62A.63.63,0,0,1,2278.13,2171.93Z" transform="translate(-2214.29 -2049.57)"/><rect class="cls-2" x="25.83" y="116.37" width="22" height="0.75"/><rect class="cls-2" x="25.83" y="122.37" width="22" height="0.75"/><path class="cls-2" d="M2228.13,2195.68h56a.38.38,0,0,0,.38-.37v-16a.38.38,0,0,0-.37-.37h-56a.38.38,0,0,0-.37.38v16A.38.38,0,0,0,2228.13,2195.68Zm.38-16h55.25v15.25H2228.5Z" transform="translate(-2214.29 -2049.57)"/><path class="cls-2" d="M2280.13,2181.93h-12a1.38,1.38,0,0,0-1.37,1.38v8a1.38,1.38,0,0,0,1.38,1.38h12a1.38,1.38,0,0,0,1.38-1.37v-8A1.38,1.38,0,0,0,2280.13,2181.93Zm.63,9.38a.63.63,0,0,1-.62.63h-12a.63.63,0,0,1-.62-.62v-8a.63.63,0,0,1,.63-.62h12a.63.63,0,0,1,.63.63Z" transform="translate(-2214.29 -2049.57)"/><path class="cls-2" d="M2263.13,2181.93h-24a1.38,1.38,0,0,0-1.37,1.38v2a1.38,1.38,0,0,0,1.38,1.38h24a1.38,1.38,0,0,0,1.38-1.37v-2A1.38,1.38,0,0,0,2263.13,2181.93Zm.63,3.38a.63.63,0,0,1-.62.63h-24a.63.63,0,0,1-.62-.62v-2a.63.63,0,0,1,.63-.62h24a.63.63,0,0,1,.63.63Z" transform="translate(-2214.29 -2049.57)"/><path class="cls-2" d="M2263.13,2187.93h-24a1.38,1.38,0,0,0-1.37,1.38v2a1.38,1.38,0,0,0,1.38,1.38h24a1.38,1.38,0,0,0,1.38-1.37v-2A1.38,1.38,0,0,0,2263.13,2187.93Zm.63,3.38a.63.63,0,0,1-.62.63h-24a.63.63,0,0,1-.62-.62v-2a.63.63,0,0,1,.63-.62h24a.63.63,0,0,1,.63.63Z" transform="translate(-2214.29 -2049.57)"/><path class="cls-2" d="M2233.13,2183.93a3.38,3.38,0,1,0,3.38,3.38A3.38,3.38,0,0,0,2233.13,2183.93Zm0,6a2.63,2.63,0,1,1,2.63-2.62A2.63,2.63,0,0,1,2233.13,2189.93Z" transform="translate(-2214.29 -2049.57)"/><path class="cls-2" d="M2233.13,2185.93a1.38,1.38,0,1,0,1.38,1.38A1.38,1.38,0,0,0,2233.13,2185.93Zm0,2a.63.63,0,1,1,.63-.62A.63.63,0,0,1,2233.13,2187.93Z" transform="translate(-2214.29 -2049.57)"/><path class="cls-2" d="M2270.13,2183.93a1.38,1.38,0,1,0,1.38,1.38A1.38,1.38,0,0,0,2270.13,2183.93Zm0,2a.63.63,0,1,1,.63-.62A.63.63,0,0,1,2270.13,2185.93Z" transform="translate(-2214.29 -2049.57)"/><path class="cls-2" d="M2270.13,2187.93a1.38,1.38,0,1,0,1.38,1.38A1.38,1.38,0,0,0,2270.13,2187.93Zm0,2a.63.63,0,1,1,.63-.62A.63.63,0,0,1,2270.13,2189.93Z" transform="translate(-2214.29 -2049.57)"/><path class="cls-2" d="M2274.13,2183.93a1.38,1.38,0,1,0,1.38,1.38A1.38,1.38,0,0,0,2274.13,2183.93Zm0,2a.63.63,0,1,1,.63-.62A.63.63,0,0,1,2274.13,2185.93Z" transform="translate(-2214.29 -2049.57)"/><path class="cls-2" d="M2274.13,2187.93a1.38,1.38,0,1,0,1.38,1.38A1.38,1.38,0,0,0,2274.13,2187.93Zm0,2a.63.63,0,1,1,.63-.62A.63.63,0,0,1,2274.13,2189.93Z" transform="translate(-2214.29 -2049.57)"/><path class="cls-2" d="M2278.13,2183.93a1.38,1.38,0,1,0,1.38,1.38A1.38,1.38,0,0,0,2278.13,2183.93Zm0,2a.63.63,0,1,1,.63-.62A.63.63,0,0,1,2278.13,2185.93Z" transform="translate(-2214.29 -2049.57)"/><path class="cls-2" d="M2278.13,2187.93a1.38,1.38,0,1,0,1.38,1.38A1.38,1.38,0,0,0,2278.13,2187.93Zm0,2a.63.63,0,1,1,.63-.62A.63.63,0,0,1,2278.13,2189.93Z" transform="translate(-2214.29 -2049.57)"/><rect class="cls-2" x="25.83" y="134.37" width="22" height="0.75"/><rect class="cls-2" x="25.83" y="140.37" width="22" height="0.75"/></g></g><g id="server"><g id="server_2"><path class="cls-3" d="M2337.5,2087.69v114.5a2,2,0,0,1-2,2h-84v-116.5Zm-3,12.5v-6a4,4,0,0,0-4-4h-72a4,4,0,0,0-4,4v6a4,4,0,0,0,4,4h72A4,4,0,0,0,2334.5,2100.19Zm-1,94v-81a4,4,0,0,0-4-4h-52a4,4,0,0,0-4,4v81a4,4,0,0,0,4,4h52A4,4,0,0,0,2333.5,2194.19Zm-67,3v-4h-8v4Zm1-81a5,5,0,1,0-5,5A5,5,0,0,0,2267.5,2116.19Zm-1,65a4,4,0,1,0-4,4A4,4,0,0,0,2266.5,2181.19Zm-1-9v-2h-6v2Zm0-6v-2h-6v2Zm0-6v-2h-6v2Zm0-6v-2h-6v2Zm0-6v-2h-6v2Zm0-6v-2h-6v2Zm0-6v-2h-6v2Zm0-6v-2h-6v2Z" transform="translate(-2214.29 -2049.57)"/><path class="cls-4" d="M2337.5,2086.19v1.5h-86v116.5h-2a2,2,0,0,1-2-2v-116a2,2,0,0,1,2-2h86A2,2,0,0,1,2337.5,2086.19Z" transform="translate(-2214.29 -2049.57)"/><path class="cls-5" d="M2334.5,2097.19v3a4,4,0,0,1-4,4h-4v-7h8Z" transform="translate(-2214.29 -2049.57)"/><path class="cls-5" d="M2334.5,2094.19v3h-8v-7h4A4,4,0,0,1,2334.5,2094.19Z" transform="translate(-2214.29 -2049.57)"/><path class="cls-3" d="M2333.5,2181.19v13h-2v-2h-27v2h-2v-2h-27v2h-2v-81a4,4,0,0,1,4-4h9v72Zm-2,9v-2h-27v2Zm0-4v-2h-27v2Zm-29,4v-2h-27v2Zm0-4v-2h-27v2Zm-19-6v-66a1,1,0,0,0-1-1h-6a1,1,0,0,0-1,1v66a1,1,0,0,0,1,1h6A1,1,0,0,0,2283.5,2180.19Z" transform="translate(-2214.29 -2049.57)"/><path class="cls-4" d="M2333.5,2113.19v68h-47v-72h43A4,4,0,0,1,2333.5,2113.19Zm-3,66v-12h-14v2h12v8h-12v2Zm0-14v-12h-14v2h12v8h-12v2Zm0-14v-12h-14v2h12v8h-12v2Zm0-14v-12h-14v2h12v8h-12v2Zm0-14v-12h-14v2h12v8h-12v2Zm-16,56v-12h-26v12Zm0-14v-12h-26v12Zm0-14v-12h-26v12Zm0-14v-12h-26v12Zm0-14v-12h-26v12Z" transform="translate(-2214.29 -2049.57)"/><path class="cls-3" d="M2331.5,2194.19h2a4,4,0,0,1-4,4h-52a4,4,0,0,1-4-4h58Z" transform="translate(-2214.29 -2049.57)"/><rect class="cls-4" x="90.21" y="142.62" width="27" height="2"/><rect class="cls-4" x="90.21" y="138.62" width="27" height="2"/><rect class="cls-4" x="90.21" y="134.62" width="27" height="2"/><polygon class="cls-3" points="116.21 117.62 116.21 129.62 102.21 129.62 102.21 127.62 114.21 127.62 114.21 119.62 102.21 119.62 102.21 117.62 116.21 117.62"/><polygon class="cls-3" points="116.21 103.62 116.21 115.62 102.21 115.62 102.21 113.62 114.21 113.62 114.21 105.62 102.21 105.62 102.21 103.62 116.21 103.62"/><polygon class="cls-3" points="116.21 89.62 116.21 101.62 102.21 101.62 102.21 99.62 114.21 99.62 114.21 91.62 102.21 91.62 102.21 89.62 116.21 89.62"/><polygon class="cls-3" points="116.21 75.62 116.21 87.62 102.21 87.62 102.21 85.62 114.21 85.62 114.21 77.62 102.21 77.62 102.21 75.62 116.21 75.62"/><polygon class="cls-3" points="116.21 61.62 116.21 73.62 102.21 73.62 102.21 71.62 114.21 71.62 114.21 63.62 102.21 63.62 102.21 61.62 116.21 61.62"/><rect class="cls-4" x="101.21" y="154.62" width="12" height="4"/><path class="cls-3" d="M2326.5,2097.19v7h-68a4,4,0,0,1-4-4v-6a4,4,0,0,1,4-4h68Zm-4,3v-6h-24v6Z" transform="translate(-2214.29 -2049.57)"/><rect class="cls-6" x="84.21" y="44.62" width="24" height="6"/><path class="cls-3" d="M2314.5,2167.19v12h-26v-12Zm-18,7a3,3,0,1,0-3,3A3,3,0,0,0,2296.5,2174.19Zm-2.5-5a.5.5,0,0,0-1,0,.5.5,0,1,0,1,0Z" transform="translate(-2214.29 -2049.57)"/><path class="cls-3" d="M2314.5,2153.19v12h-26v-12Zm-18,7a3,3,0,1,0-3,3A3,3,0,0,0,2296.5,2160.19Zm-2.5-5a.5.5,0,0,0-1,0,.5.5,0,1,0,1,0Z" transform="translate(-2214.29 -2049.57)"/><path class="cls-3" d="M2314.5,2139.19v12h-26v-12Zm-18,7a3,3,0,1,0-3,3A3,3,0,0,0,2296.5,2146.19Zm-2.5-5a.5.5,0,0,0-1,0,.5.5,0,1,0,1,0Z" transform="translate(-2214.29 -2049.57)"/><path class="cls-3" d="M2314.5,2125.19v12h-26v-12Zm-18,7a3,3,0,1,0-3,3A3,3,0,0,0,2296.5,2132.19Zm-2.5-5a.5.5,0,0,0-1,0,.5.5,0,1,0,1,0Z" transform="translate(-2214.29 -2049.57)"/><path class="cls-3" d="M2314.5,2111.19v12h-26v-12Zm-18,7a3,3,0,1,0-3,3A3,3,0,0,0,2296.5,2118.19Zm-2.5-5a.5.5,0,0,0-1,0,.5.5,0,1,0,1,0Z" transform="translate(-2214.29 -2049.57)"/><rect class="cls-4" x="61.21" y="142.62" width="27" height="2"/><rect class="cls-4" x="61.21" y="138.62" width="27" height="2"/><rect class="cls-4" x="61.21" y="134.62" width="27" height="2"/><path class="cls-5" d="M2293.5,2115.19a3,3,0,1,1-3,3A3,3,0,0,1,2293.5,2115.19Z" transform="translate(-2214.29 -2049.57)"/><path class="cls-5" d="M2293.5,2129.19a3,3,0,1,1-3,3A3,3,0,0,1,2293.5,2129.19Z" transform="translate(-2214.29 -2049.57)"/><path class="cls-5" d="M2293.5,2143.19a3,3,0,1,1-3,3A3,3,0,0,1,2293.5,2143.19Z" transform="translate(-2214.29 -2049.57)"/><path class="cls-5" d="M2293.5,2157.19a3,3,0,1,1-3,3A3,3,0,0,1,2293.5,2157.19Z" transform="translate(-2214.29 -2049.57)"/><path class="cls-5" d="M2293.5,2171.19a3,3,0,1,1-3,3A3,3,0,0,1,2293.5,2171.19Z" transform="translate(-2214.29 -2049.57)"/><path class="cls-7" d="M2293.5,2112.69a.5.5,0,0,1,.5.5.5.5,0,1,1-1,0A.5.5,0,0,1,2293.5,2112.69Z" transform="translate(-2214.29 -2049.57)"/><path class="cls-7" d="M2293.5,2126.69a.5.5,0,0,1,.5.5.5.5,0,1,1-1,0A.5.5,0,0,1,2293.5,2126.69Z" transform="translate(-2214.29 -2049.57)"/><path class="cls-7" d="M2293.5,2140.69a.5.5,0,0,1,.5.5.5.5,0,1,1-1,0A.5.5,0,0,1,2293.5,2140.69Z" transform="translate(-2214.29 -2049.57)"/><path class="cls-7" d="M2293.5,2154.69a.5.5,0,0,1,.5.5.5.5,0,1,1-1,0A.5.5,0,0,1,2293.5,2154.69Z" transform="translate(-2214.29 -2049.57)"/><path class="cls-7" d="M2293.5,2168.69a.5.5,0,0,1,.5.5.5.5,0,1,1-1,0A.5.5,0,0,1,2293.5,2168.69Z" transform="translate(-2214.29 -2049.57)"/><path class="cls-4" d="M2283.5,2179.19v1a1,1,0,0,1-1,1h-1v-2Z" transform="translate(-2214.29 -2049.57)"/><rect class="cls-4" x="67.21" y="127.62" width="2" height="2"/><rect class="cls-4" x="67.21" y="125.62" width="2" height="2"/><rect class="cls-4" x="67.21" y="123.62" width="2" height="2"/><rect class="cls-4" x="67.21" y="121.62" width="2" height="2"/><rect class="cls-4" x="67.21" y="119.62" width="2" height="2"/><rect class="cls-4" x="67.21" y="117.62" width="2" height="2"/><rect class="cls-4" x="67.21" y="115.62" width="2" height="2"/><rect class="cls-4" x="67.21" y="113.62" width="2" height="2"/><rect class="cls-4" x="67.21" y="111.62" width="2" height="2"/><rect class="cls-4" x="67.21" y="109.62" width="2" height="2"/><rect class="cls-4" x="67.21" y="107.62" width="2" height="2"/><rect class="cls-4" x="67.21" y="105.62" width="2" height="2"/><rect class="cls-4" x="67.21" y="103.62" width="2" height="2"/><rect class="cls-4" x="67.21" y="101.62" width="2" height="2"/><rect class="cls-4" x="67.21" y="99.62" width="2" height="2"/><rect class="cls-4" x="67.21" y="97.62" width="2" height="2"/><rect class="cls-4" x="67.21" y="95.62" width="2" height="2"/><rect class="cls-4" x="67.21" y="93.62" width="2" height="2"/><rect class="cls-4" x="67.21" y="91.62" width="2" height="2"/><rect class="cls-4" x="67.21" y="89.62" width="2" height="2"/><rect class="cls-4" x="67.21" y="87.62" width="2" height="2"/><rect class="cls-4" x="67.21" y="85.62" width="2" height="2"/><rect class="cls-4" x="67.21" y="83.62" width="2" height="2"/><rect class="cls-4" x="67.21" y="81.62" width="2" height="2"/><rect class="cls-4" x="67.21" y="79.62" width="2" height="2"/><rect class="cls-4" x="67.21" y="77.62" width="2" height="2"/><rect class="cls-4" x="67.21" y="75.62" width="2" height="2"/><rect class="cls-4" x="67.21" y="73.62" width="2" height="2"/><rect class="cls-4" x="67.21" y="71.62" width="2" height="2"/><rect class="cls-4" x="67.21" y="69.62" width="2" height="2"/><rect class="cls-4" x="67.21" y="67.62" width="2" height="2"/><rect class="cls-4" x="67.21" y="65.62" width="2" height="2"/><path class="cls-4" d="M2283.5,2114.19v1h-2v-2h1A1,1,0,0,1,2283.5,2114.19Z" transform="translate(-2214.29 -2049.57)"/><rect class="cls-4" x="65.21" y="129.62" width="2" height="2"/><rect class="cls-4" x="65.21" y="127.62" width="2" height="2"/><rect class="cls-4" x="65.21" y="125.62" width="2" height="2"/><rect class="cls-4" x="65.21" y="123.62" width="2" height="2"/><rect class="cls-4" x="65.21" y="121.62" width="2" height="2"/><rect class="cls-4" x="65.21" y="119.62" width="2" height="2"/><rect class="cls-4" x="65.21" y="117.62" width="2" height="2"/><rect class="cls-4" x="65.21" y="115.62" width="2" height="2"/><rect class="cls-4" x="65.21" y="113.62" width="2" height="2"/><rect class="cls-4" x="65.21" y="111.62" width="2" height="2"/><rect class="cls-4" x="65.21" y="109.62" width="2" height="2"/><rect class="cls-4" x="65.21" y="107.62" width="2" height="2"/><rect class="cls-4" x="65.21" y="105.62" width="2" height="2"/><rect class="cls-4" x="65.21" y="103.62" width="2" height="2"/><rect class="cls-4" x="65.21" y="101.62" width="2" height="2"/><rect class="cls-4" x="65.21" y="99.62" width="2" height="2"/><rect class="cls-4" x="65.21" y="97.62" width="2" height="2"/><rect class="cls-4" x="65.21" y="95.62" width="2" height="2"/><rect class="cls-4" x="65.21" y="93.62" width="2" height="2"/><rect class="cls-4" x="65.21" y="91.62" width="2" height="2"/><rect class="cls-4" x="65.21" y="89.62" width="2" height="2"/><rect class="cls-4" x="65.21" y="87.62" width="2" height="2"/><rect class="cls-4" x="65.21" y="85.62" width="2" height="2"/><rect class="cls-4" x="65.21" y="83.62" width="2" height="2"/><rect class="cls-4" x="65.21" y="81.62" width="2" height="2"/><rect class="cls-4" x="65.21" y="79.62" width="2" height="2"/><rect class="cls-4" x="65.21" y="77.62" width="2" height="2"/><rect class="cls-4" x="65.21" y="75.62" width="2" height="2"/><rect class="cls-4" x="65.21" y="73.62" width="2" height="2"/><rect class="cls-4" x="65.21" y="71.62" width="2" height="2"/><rect class="cls-4" x="65.21" y="69.62" width="2" height="2"/><rect class="cls-4" x="65.21" y="67.62" width="2" height="2"/><rect class="cls-4" x="65.21" y="65.62" width="2" height="2"/><rect class="cls-4" x="65.21" y="63.62" width="2" height="2"/><rect class="cls-4" x="63.21" y="129.62" width="2" height="2"/><rect class="cls-4" x="63.21" y="127.62" width="2" height="2"/><rect class="cls-4" x="63.21" y="125.62" width="2" height="2"/><rect class="cls-4" x="63.21" y="123.62" width="2" height="2"/><rect class="cls-4" x="63.21" y="121.62" width="2" height="2"/><rect class="cls-4" x="63.21" y="119.62" width="2" height="2"/><rect class="cls-4" x="63.21" y="117.62" width="2" height="2"/><rect class="cls-4" x="63.21" y="115.62" width="2" height="2"/><rect class="cls-4" x="63.21" y="113.62" width="2" height="2"/><rect class="cls-4" x="63.21" y="111.62" width="2" height="2"/><rect class="cls-4" x="63.21" y="109.62" width="2" height="2"/><rect class="cls-4" x="63.21" y="107.62" width="2" height="2"/><rect class="cls-4" x="63.21" y="105.62" width="2" height="2"/><rect class="cls-4" x="63.21" y="103.62" width="2" height="2"/><rect class="cls-4" x="63.21" y="101.62" width="2" height="2"/><rect class="cls-4" x="63.21" y="99.62" width="2" height="2"/><rect class="cls-4" x="63.21" y="97.62" width="2" height="2"/><rect class="cls-4" x="63.21" y="95.62" width="2" height="2"/><rect class="cls-4" x="63.21" y="93.62" width="2" height="2"/><rect class="cls-4" x="63.21" y="91.62" width="2" height="2"/><rect class="cls-4" x="63.21" y="89.62" width="2" height="2"/><rect class="cls-4" x="63.21" y="87.62" width="2" height="2"/><rect class="cls-4" x="63.21" y="85.62" width="2" height="2"/><rect class="cls-4" x="63.21" y="83.62" width="2" height="2"/><rect class="cls-4" x="63.21" y="81.62" width="2" height="2"/><rect class="cls-4" x="63.21" y="79.62" width="2" height="2"/><rect class="cls-4" x="63.21" y="77.62" width="2" height="2"/><rect class="cls-4" x="63.21" y="75.62" width="2" height="2"/><rect class="cls-4" x="63.21" y="73.62" width="2" height="2"/><rect class="cls-4" x="63.21" y="71.62" width="2" height="2"/><rect class="cls-4" x="63.21" y="69.62" width="2" height="2"/><rect class="cls-4" x="63.21" y="67.62" width="2" height="2"/><rect class="cls-4" x="63.21" y="65.62" width="2" height="2"/><rect class="cls-4" x="63.21" y="63.62" width="2" height="2"/><path class="cls-4" d="M2277.5,2179.19v2h-1a1,1,0,0,1-1-1v-1Z" transform="translate(-2214.29 -2049.57)"/><rect class="cls-4" x="61.21" y="127.62" width="2" height="2"/><rect class="cls-4" x="61.21" y="125.62" width="2" height="2"/><rect class="cls-4" x="61.21" y="123.62" width="2" height="2"/><rect class="cls-4" x="61.21" y="121.62" width="2" height="2"/><rect class="cls-4" x="61.21" y="119.62" width="2" height="2"/><rect class="cls-4" x="61.21" y="117.62" width="2" height="2"/><rect class="cls-4" x="61.21" y="115.62" width="2" height="2"/><rect class="cls-4" x="61.21" y="113.62" width="2" height="2"/><rect class="cls-4" x="61.21" y="111.62" width="2" height="2"/><rect class="cls-4" x="61.21" y="109.62" width="2" height="2"/><rect class="cls-4" x="61.21" y="107.62" width="2" height="2"/><rect class="cls-4" x="61.21" y="105.62" width="2" height="2"/><rect class="cls-4" x="61.21" y="103.62" width="2" height="2"/><rect class="cls-4" x="61.21" y="101.62" width="2" height="2"/><rect class="cls-4" x="61.21" y="99.62" width="2" height="2"/><rect class="cls-4" x="61.21" y="97.62" width="2" height="2"/><rect class="cls-4" x="61.21" y="95.62" width="2" height="2"/><rect class="cls-4" x="61.21" y="93.62" width="2" height="2"/><rect class="cls-4" x="61.21" y="91.62" width="2" height="2"/><rect class="cls-4" x="61.21" y="89.62" width="2" height="2"/><rect class="cls-4" x="61.21" y="87.62" width="2" height="2"/><rect class="cls-4" x="61.21" y="85.62" width="2" height="2"/><rect class="cls-4" x="61.21" y="83.62" width="2" height="2"/><rect class="cls-4" x="61.21" y="81.62" width="2" height="2"/><rect class="cls-4" x="61.21" y="79.62" width="2" height="2"/><rect class="cls-4" x="61.21" y="77.62" width="2" height="2"/><rect class="cls-4" x="61.21" y="75.62" width="2" height="2"/><rect class="cls-4" x="61.21" y="73.62" width="2" height="2"/><rect class="cls-4" x="61.21" y="71.62" width="2" height="2"/><rect class="cls-4" x="61.21" y="69.62" width="2" height="2"/><rect class="cls-4" x="61.21" y="67.62" width="2" height="2"/><rect class="cls-4" x="61.21" y="65.62" width="2" height="2"/><path class="cls-4" d="M2277.5,2113.19v2h-2v-1a1,1,0,0,1,1-1Z" transform="translate(-2214.29 -2049.57)"/><rect class="cls-4" x="43.21" y="154.62" width="12" height="4"/><rect class="cls-4" x="44.21" y="145.62" width="8" height="2"/><rect class="cls-4" x="44.21" y="143.62" width="8" height="2"/><path class="cls-5" d="M2262.5,2111.19a5,5,0,1,1-5,5A5,5,0,0,1,2262.5,2111.19Z" transform="translate(-2214.29 -2049.57)"/><path class="cls-5" d="M2262.5,2177.19a4,4,0,1,1-4,4A4,4,0,0,1,2262.5,2177.19Z" transform="translate(-2214.29 -2049.57)"/><rect class="cls-8" x="45.21" y="120.62" width="6" height="2"/><rect class="cls-6" x="45.21" y="114.62" width="6" height="2"/><rect class="cls-6" x="45.21" y="108.62" width="6" height="2"/><rect class="cls-6" x="45.21" y="102.62" width="6" height="2"/><rect class="cls-6" x="45.21" y="96.62" width="6" height="2"/><rect class="cls-6" x="45.21" y="90.62" width="6" height="2"/><rect class="cls-6" x="45.21" y="84.62" width="6" height="2"/><rect class="cls-6" x="45.21" y="78.62" width="6" height="2"/></g><g id="shadows"><polygon class="cls-9" points="123.21 36.62 35.38 36.62 33.21 42.74 33.21 36.62 34.54 34.74 121.88 34.74 123.21 36.62"/><polygon class="cls-9" points="123.54 39.12 37.38 39.12 37.21 44.12 37.38 38.12 123.54 38.12 123.54 39.12"/><path class="cls-1" d="M2326.5,2090.38v1h-68a4,4,0,0,0-4,4v-1a4,4,0,0,1,4-4Z" transform="translate(-2214.29 -2049.57)"/><path class="cls-10" d="M2326.5,2089.88" transform="translate(-2214.29 -2049.57)"/><rect class="cls-1" x="43.21" y="154.06" width="12" height="4.56"/><rect class="cls-1" x="101.21" y="154.06" width="12" height="4.56"/><polygon class="cls-9" points="72.21 59.62 62.83 59.62 60.04 61.18 72.02 61.18 72.21 59.62"/><polygon class="cls-1" points="37.21 152.6 120.83 152.6 123.21 147.62 123.21 154.06 117.21 154.62 37.21 154.62 37.21 152.6"/></g><g id="server_2_copy" data-name="server_2 copy"><rect class="cls-11" x="33.21" y="34.62" width="90" height="120" rx="2" ry="2"/><rect class="cls-12" x="40.21" y="40.62" width="80" height="14" rx="4" ry="4"/><circle class="cls-12" cx="48.21" cy="66.62" r="5"/><circle class="cls-12" cx="48.21" cy="131.62" r="4"/><rect class="cls-12" x="45.21" y="78.62" width="6" height="2"/><rect class="cls-12" x="45.21" y="84.62" width="6" height="2"/><rect class="cls-12" x="45.21" y="90.62" width="6" height="2"/><rect class="cls-12" x="45.21" y="96.62" width="6" height="2"/><rect class="cls-12" x="45.21" y="102.62" width="6" height="2"/><rect class="cls-12" x="45.21" y="108.62" width="6" height="2"/><rect class="cls-12" x="45.21" y="114.62" width="6" height="2"/><rect class="cls-12" x="45.21" y="120.62" width="6" height="2"/><rect class="cls-12" x="44.21" y="143.62" width="8" height="4"/><line class="cls-12" x1="44.21" y1="145.62" x2="52.21" y2="145.62"/><rect class="cls-12" x="59.21" y="59.62" width="60" height="89" rx="4" ry="4"/><path class="cls-12" d="M2261.09,2114.78a2,2,0,0,0-.59,1.41,2,2,0,1,0,4,0,2,2,0,0,0-.59-1.41" transform="translate(-2214.29 -2049.57)"/><line class="cls-12" x1="48.21" y1="64.62" x2="48.21" y2="66.62"/><line class="cls-12" x1="117.21" y1="142.62" x2="90.21" y2="142.62"/><line class="cls-12" x1="88.21" y1="142.62" x2="61.21" y2="142.62"/><line class="cls-12" x1="117.21" y1="144.62" x2="90.21" y2="144.62"/><line class="cls-12" x1="88.21" y1="144.62" x2="61.21" y2="144.62"/><line class="cls-12" x1="117.21" y1="138.62" x2="90.21" y2="138.62"/><line class="cls-12" x1="88.21" y1="138.62" x2="61.21" y2="138.62"/><line class="cls-12" x1="117.21" y1="140.62" x2="90.21" y2="140.62"/><line class="cls-12" x1="88.21" y1="140.62" x2="61.21" y2="140.62"/><line class="cls-12" x1="117.21" y1="134.62" x2="90.21" y2="134.62"/><line class="cls-12" x1="88.21" y1="134.62" x2="61.21" y2="134.62"/><line class="cls-12" x1="117.21" y1="136.62" x2="90.21" y2="136.62"/><line class="cls-12" x1="88.21" y1="136.62" x2="61.21" y2="136.62"/><line class="cls-12" x1="61.21" y1="144.62" x2="61.21" y2="142.62"/><line class="cls-12" x1="61.21" y1="136.62" x2="61.21" y2="134.62"/><line class="cls-12" x1="61.21" y1="140.62" x2="61.21" y2="138.62"/><line class="cls-12" x1="117.21" y1="144.62" x2="117.21" y2="142.62"/><line class="cls-12" x1="117.21" y1="136.62" x2="117.21" y2="134.62"/><line class="cls-12" x1="117.21" y1="140.62" x2="117.21" y2="138.62"/><line class="cls-12" x1="88.21" y1="140.62" x2="88.21" y2="138.62"/><line class="cls-12" x1="88.21" y1="136.62" x2="88.21" y2="134.62"/><line class="cls-12" x1="88.21" y1="144.62" x2="88.21" y2="142.62"/><line class="cls-12" x1="90.21" y1="136.62" x2="90.21" y2="134.62"/><line class="cls-12" x1="90.21" y1="144.62" x2="90.21" y2="142.62"/><line class="cls-12" x1="90.21" y1="140.62" x2="90.21" y2="138.62"/><rect class="cls-12" x="61.21" y="63.62" width="8" height="68" rx="1" ry="1"/><polyline class="cls-12" points="72.21 59.62 72.21 131.62 119.21 131.62"/><line class="cls-13" x1="112.21" y1="40.62" x2="112.21" y2="54.62"/><line class="cls-12" x1="112.54" y1="47.62" x2="120.21" y2="47.62"/><line class="cls-12" x1="44.21" y1="44.62" x2="47.21" y2="44.62"/><line class="cls-12" x1="49.21" y1="44.62" x2="52.21" y2="44.62"/><line class="cls-12" x1="54.21" y1="44.62" x2="57.21" y2="44.62"/><line class="cls-12" x1="59.21" y1="44.62" x2="62.21" y2="44.62"/><rect class="cls-12" x="84.21" y="44.62" width="24" height="6"/><line class="cls-12" x1="115.21" y1="44.62" x2="117.21" y2="44.62"/><line class="cls-12" x1="115.21" y1="50.62" x2="117.21" y2="50.62"/><rect class="cls-12" x="74.21" y="61.62" width="26" height="12"/><polygon class="cls-12" points="114.21 71.62 102.21 71.62 102.21 73.62 116.21 73.62 116.21 61.62 102.21 61.62 102.21 63.62 114.21 63.62 114.21 71.62"/><line class="cls-12" x1="102.21" y1="69.62" x2="112.21" y2="69.62"/><line class="cls-12" x1="102.21" y1="67.62" x2="112.21" y2="67.62"/><line class="cls-12" x1="102.21" y1="65.62" x2="112.21" y2="65.62"/><circle class="cls-12" cx="79.21" cy="68.62" r="3"/><circle class="cls-14" cx="79.21" cy="63.62" r="0.5"/><path class="cls-12" d="M2293.5,2116.69a1.5,1.5,0,0,0-1.5,1.5" transform="translate(-2214.29 -2049.57)"/><path class="cls-12" d="M2295,2118.19a1.5,1.5,0,0,1-1.5,1.5" transform="translate(-2214.29 -2049.57)"/><line class="cls-12" x1="84.21" y1="69.62" x2="98.21" y2="69.62"/><line class="cls-12" x1="84.21" y1="67.62" x2="98.21" y2="67.62"/><line class="cls-12" x1="83.21" y1="65.62" x2="98.21" y2="65.62"/><line class="cls-12" x1="83.21" y1="71.62" x2="98.21" y2="71.62"/><rect class="cls-12" x="74.21" y="75.62" width="26" height="12"/><polygon class="cls-12" points="114.21 85.62 102.21 85.62 102.21 87.62 116.21 87.62 116.21 75.62 102.21 75.62 102.21 77.62 114.21 77.62 114.21 85.62"/><line class="cls-12" x1="102.21" y1="83.62" x2="112.21" y2="83.62"/><line class="cls-12" x1="102.21" y1="81.62" x2="112.21" y2="81.62"/><line class="cls-12" x1="102.21" y1="79.62" x2="112.21" y2="79.62"/><circle class="cls-12" cx="79.21" cy="82.62" r="3"/><circle class="cls-14" cx="79.21" cy="77.62" r="0.5"/><path class="cls-12" d="M2293.5,2130.69a1.5,1.5,0,0,0-1.5,1.5" transform="translate(-2214.29 -2049.57)"/><path class="cls-12" d="M2295,2132.19a1.5,1.5,0,0,1-1.5,1.5" transform="translate(-2214.29 -2049.57)"/><line class="cls-12" x1="84.21" y1="83.62" x2="98.21" y2="83.62"/><line class="cls-12" x1="84.21" y1="81.62" x2="98.21" y2="81.62"/><line class="cls-12" x1="83.21" y1="79.62" x2="98.21" y2="79.62"/><line class="cls-12" x1="83.21" y1="85.62" x2="98.21" y2="85.62"/><rect class="cls-12" x="74.21" y="89.62" width="26" height="12"/><polygon class="cls-12" points="114.21 99.62 102.21 99.62 102.21 101.62 116.21 101.62 116.21 89.62 102.21 89.62 102.21 91.62 114.21 91.62 114.21 99.62"/><line class="cls-12" x1="102.21" y1="97.62" x2="112.21" y2="97.62"/><line class="cls-12" x1="102.21" y1="95.62" x2="112.21" y2="95.62"/><line class="cls-12" x1="102.21" y1="93.62" x2="112.21" y2="93.62"/><circle class="cls-12" cx="79.21" cy="96.62" r="3"/><circle class="cls-14" cx="79.21" cy="91.62" r="0.5"/><path class="cls-12" d="M2293.5,2144.69a1.5,1.5,0,0,0-1.5,1.5" transform="translate(-2214.29 -2049.57)"/><path class="cls-12" d="M2295,2146.19a1.5,1.5,0,0,1-1.5,1.5" transform="translate(-2214.29 -2049.57)"/><line class="cls-12" x1="84.21" y1="97.62" x2="98.21" y2="97.62"/><line class="cls-12" x1="84.21" y1="95.62" x2="98.21" y2="95.62"/><line class="cls-12" x1="83.21" y1="93.62" x2="98.21" y2="93.62"/><line class="cls-12" x1="83.21" y1="99.62" x2="98.21" y2="99.62"/><rect class="cls-12" x="74.21" y="103.62" width="26" height="12"/><polygon class="cls-12" points="114.21 113.62 102.21 113.62 102.21 115.62 116.21 115.62 116.21 103.62 102.21 103.62 102.21 105.62 114.21 105.62 114.21 113.62"/><line class="cls-12" x1="102.21" y1="111.62" x2="112.21" y2="111.62"/><line class="cls-12" x1="102.21" y1="109.62" x2="112.21" y2="109.62"/><line class="cls-12" x1="102.21" y1="107.62" x2="112.21" y2="107.62"/><circle class="cls-12" cx="79.21" cy="110.62" r="3"/><circle class="cls-14" cx="79.21" cy="105.62" r="0.5"/><path class="cls-12" d="M2293.5,2158.69a1.5,1.5,0,0,0-1.5,1.5" transform="translate(-2214.29 -2049.57)"/><path class="cls-12" d="M2295,2160.19a1.5,1.5,0,0,1-1.5,1.5" transform="translate(-2214.29 -2049.57)"/><line class="cls-12" x1="84.21" y1="111.62" x2="98.21" y2="111.62"/><line class="cls-12" x1="84.21" y1="109.62" x2="98.21" y2="109.62"/><line class="cls-12" x1="83.21" y1="107.62" x2="98.21" y2="107.62"/><line class="cls-12" x1="83.21" y1="113.62" x2="98.21" y2="113.62"/><rect class="cls-12" x="74.21" y="117.62" width="26" height="12"/><polygon class="cls-12" points="114.21 127.62 102.21 127.62 102.21 129.62 116.21 129.62 116.21 117.62 102.21 117.62 102.21 119.62 114.21 119.62 114.21 127.62"/><line class="cls-12" x1="102.21" y1="125.62" x2="112.21" y2="125.62"/><line class="cls-12" x1="102.21" y1="123.62" x2="112.21" y2="123.62"/><line class="cls-12" x1="102.21" y1="121.62" x2="112.21" y2="121.62"/><circle class="cls-12" cx="79.21" cy="124.62" r="3"/><circle class="cls-14" cx="79.21" cy="119.62" r="0.5"/><path class="cls-12" d="M2293.5,2172.69a1.5,1.5,0,0,0-1.5,1.5" transform="translate(-2214.29 -2049.57)"/><path class="cls-12" d="M2295,2174.19a1.5,1.5,0,0,1-1.5,1.5" transform="translate(-2214.29 -2049.57)"/><line class="cls-12" x1="84.21" y1="125.62" x2="98.21" y2="125.62"/><line class="cls-12" x1="84.21" y1="123.62" x2="98.21" y2="123.62"/><line class="cls-12" x1="83.21" y1="121.62" x2="98.21" y2="121.62"/><line class="cls-12" x1="83.21" y1="127.62" x2="98.21" y2="127.62"/><line class="cls-12" x1="63.21" y1="63.62" x2="63.21" y2="131.62"/><line class="cls-12" x1="65.21" y1="63.62" x2="65.21" y2="131.62"/><line class="cls-12" x1="67.21" y1="63.62" x2="67.21" y2="131.62"/><line class="cls-12" x1="61.21" y1="65.62" x2="69.21" y2="65.62"/><line class="cls-12" x1="61.21" y1="67.62" x2="69.21" y2="67.62"/><line class="cls-12" x1="61.21" y1="69.62" x2="69.21" y2="69.62"/><line class="cls-12" x1="61.21" y1="79.62" x2="69.21" y2="79.62"/><line class="cls-12" x1="61.21" y1="89.62" x2="69.21" y2="89.62"/><line class="cls-12" x1="61.21" y1="77.62" x2="69.21" y2="77.62"/><line class="cls-12" x1="61.21" y1="75.62" x2="69.21" y2="75.62"/><line class="cls-12" x1="61.21" y1="73.62" x2="69.21" y2="73.62"/><line class="cls-12" x1="61.21" y1="71.62" x2="69.21" y2="71.62"/><line class="cls-12" x1="61.21" y1="81.62" x2="69.21" y2="81.62"/><line class="cls-12" x1="61.21" y1="91.62" x2="69.21" y2="91.62"/><line class="cls-12" x1="61.21" y1="87.62" x2="69.21" y2="87.62"/><line class="cls-12" x1="61.21" y1="85.62" x2="69.21" y2="85.62"/><line class="cls-12" x1="61.21" y1="83.62" x2="69.21" y2="83.62"/><line class="cls-12" x1="61.21" y1="93.62" x2="69.21" y2="93.62"/><line class="cls-12" x1="61.21" y1="95.62" x2="69.21" y2="95.62"/><line class="cls-12" x1="61.21" y1="97.62" x2="69.21" y2="97.62"/><line class="cls-12" x1="61.21" y1="107.62" x2="69.21" y2="107.62"/><line class="cls-12" x1="61.21" y1="117.62" x2="69.21" y2="117.62"/><line class="cls-12" x1="61.21" y1="105.62" x2="69.21" y2="105.62"/><line class="cls-12" x1="61.21" y1="103.62" x2="69.21" y2="103.62"/><line class="cls-12" x1="61.21" y1="101.62" x2="69.21" y2="101.62"/><line class="cls-12" x1="61.21" y1="99.62" x2="69.21" y2="99.62"/><line class="cls-12" x1="61.21" y1="109.62" x2="69.21" y2="109.62"/><line class="cls-12" x1="61.21" y1="119.62" x2="69.21" y2="119.62"/><line class="cls-12" x1="61.21" y1="115.62" x2="69.21" y2="115.62"/><line class="cls-12" x1="61.21" y1="113.62" x2="69.21" y2="113.62"/><line class="cls-12" x1="61.21" y1="111.62" x2="69.21" y2="111.62"/><line class="cls-12" x1="61.21" y1="125.62" x2="69.21" y2="125.62"/><line class="cls-12" x1="61.21" y1="127.62" x2="69.21" y2="127.62"/><line class="cls-12" x1="61.21" y1="123.62" x2="69.21" y2="123.62"/><line class="cls-12" x1="61.21" y1="121.62" x2="69.21" y2="121.62"/><line class="cls-12" x1="61.21" y1="129.62" x2="69.21" y2="129.62"/><path class="cls-12" d="M2241.13,2208.19" transform="translate(-2214.29 -2049.57)"/><path class="cls-11" d="M2251.5,2208.19" transform="translate(-2214.29 -2049.57)"/><line class="cls-12" x1="69.83" y1="158.62" x2="133.08" y2="158.62"/><line class="cls-12" x1="24.83" y1="158.62" x2="21.83" y2="158.62"/><line class="cls-15" x1="55.21" y1="158.62" x2="55.21" y2="154.62"/><line class="cls-15" x1="43.21" y1="154.62" x2="43.21" y2="158.62"/><line class="cls-15" x1="113.21" y1="158.62" x2="113.21" y2="154.62"/><line class="cls-15" x1="101.21" y1="154.62" x2="101.21" y2="158.62"/><line class="cls-12" x1="67.83" y1="158.62" x2="66.83" y2="158.62"/><line class="cls-12" x1="26.83" y1="158.62" x2="64.83" y2="158.62"/><polyline class="cls-12" points="37.21 154.62 37.21 38.12 123.21 38.12"/><line class="cls-16" x1="100.21" y1="46.62" x2="100.21" y2="48.62"/><line class="cls-16" x1="102.21" y1="46.62" x2="102.21" y2="48.62"/><line class="cls-16" x1="104.21" y1="46.62" x2="104.21" y2="48.62"/><line class="cls-16" x1="106.21" y1="46.62" x2="106.21" y2="48.62"/></g></g></svg>