<svg id="small_server" data-name="small server" xmlns="http://www.w3.org/2000/svg" viewBox="0 0 135.77 148.27"><defs><style>.cls-1{opacity:0.25;}.cls-2{fill:#1f4d59;}.cls-3{opacity:0.5;}.cls-4{fill:#4c9bbe;}.cls-5{fill:#7aff6c;}.cls-6{fill:#64c0f2;}.cls-7{fill:#777;}.cls-8{fill:#f1f0ed;}.cls-10,.cls-11,.cls-12,.cls-9{fill:none;stroke:#1f4d59;stroke-linejoin:round;}.cls-10,.cls-9{stroke-linecap:round;}.cls-12,.cls-9{stroke-width:1.5px;}</style></defs><title>small-server</title><g id="Layer_199" data-name="Layer 199"><g class="cls-1"><path class="cls-2" d="M2163.11,2184.48a1.49,1.49,0,0,0-1.35,2.14l-7.77,7.78h-6.15v1h6.56l8.07-8.07a1.5,1.5,0,1,0,.64-2.85Zm0,2a.5.5,0,0,1-.5-.5.51.51,0,0,1,.5-.5.5.5,0,0,1,.5.5A.49.49,0,0,1,2163.11,2186.48Z" transform="translate(-2038.96 -2060.42)"/><path class="cls-2" d="M2163.61,2171.77l-7.29-7.29v-7.38a1.5,1.5,0,1,0-1,0v7.79l7.29,7.3v7.58l-6.86,6.86a1.52,1.52,0,1,0,.71.71l7.15-7.15Zm-7.79-15.58a.5.5,0,0,1-.5-.5.5.5,0,0,1,.5-.5.5.5,0,0,1,.5.5A.51.51,0,0,1,2155.82,2156.19Zm-.71,32.29a.5.5,0,0,1-.5-.5.51.51,0,0,1,.5-.5.5.5,0,0,1,.5.5A.49.49,0,0,1,2155.11,2188.48Z" transform="translate(-2038.96 -2060.42)"/><path class="cls-2" d="M2159.61,2173.77l-2.15-2.14a1.55,1.55,0,0,0,.15-.65,1.5,1.5,0,1,0-1.5,1.5,1.55,1.55,0,0,0,.65-.15l1.85,1.86v3.58l-4.86,4.86a1.52,1.52,0,1,0,.71.71l5.15-5.15Zm-3.5-2.29a.5.5,0,0,1-.5-.5.51.51,0,0,1,.5-.5.5.5,0,0,1,.5.5A.49.49,0,0,1,2156.11,2171.48Zm-3,13a.5.5,0,0,1-.5-.5.51.51,0,0,1,.5-.5.5.5,0,0,1,.5.5A.49.49,0,0,1,2153.11,2184.48Z" transform="translate(-2038.96 -2060.42)"/><path class="cls-2" d="M2153.11,2199.48a1.5,1.5,0,0,0-1.5,1.5,1.55,1.55,0,0,0,.15.65l-3.92,3.92v1.4l4.62-4.62a1.55,1.55,0,0,0,.65.15,1.5,1.5,0,0,0,0-3Zm0,2a.5.5,0,0,1-.5-.5.51.51,0,0,1,.5-.5.5.5,0,0,1,.5.5A.49.49,0,0,1,2153.11,2201.48Z" transform="translate(-2038.96 -2060.42)"/><path class="cls-2" d="M2119.23,2071.42a1.49,1.49,0,0,0-1.34,2.16l0,0-4.91,4.92v5.71h1v-5.3l4.62-4.62a1.55,1.55,0,0,0,.65.15,1.5,1.5,0,0,0,0-3Zm0,2a.5.5,0,0,1-.5-.5.5.5,0,0,1,.5-.5.5.5,0,0,1,.5.5A.51.51,0,0,1,2119.23,2073.42Z" transform="translate(-2038.96 -2060.42)"/><path class="cls-2" d="M2127.24,2070.19a1.5,1.5,0,0,0-.5,2.91v11.09h1V2073.1a1.5,1.5,0,0,0-.5-2.91Zm0,2a.5.5,0,0,1-.5-.5.5.5,0,0,1,.5-.5.5.5,0,0,1,.5.5A.51.51,0,0,1,2127.24,2072.19Z" transform="translate(-2038.96 -2060.42)"/><path class="cls-2" d="M2138.23,2060.42a1.49,1.49,0,0,0-1.34,2.16l0,0-4.91,4.92v16.71h1v-16.3l4.62-4.62a1.55,1.55,0,0,0,.65.15,1.5,1.5,0,0,0,0-3Zm0,2a.5.5,0,0,1-.5-.5.5.5,0,0,1,.5-.5.5.5,0,0,1,.5.5A.51.51,0,0,1,2138.23,2062.42Z" transform="translate(-2038.96 -2060.42)"/><path class="cls-2" d="M2143.23,2063.42a1.49,1.49,0,0,0-1.34,2.16l0,0-6.14,6.15v5.8a1.5,1.5,0,0,0,.5,2.91,1.5,1.5,0,0,0,.5-2.91v-5.39l5.85-5.85a1.55,1.55,0,0,0,.65.15,1.5,1.5,0,0,0,0-3Zm-7,16a.5.5,0,0,1-.5-.5.5.5,0,0,1,.5-.5.5.5,0,0,1,.5.5A.51.51,0,0,1,2136.23,2079.42Zm7-14a.5.5,0,0,1-.5-.5.5.5,0,0,1,.5-.5.5.5,0,0,1,.5.5A.51.51,0,0,1,2143.23,2065.42Z" transform="translate(-2038.96 -2060.42)"/><path class="cls-2" d="M2150.23,2066.42a1.5,1.5,0,0,0-1.5,1.5,1.53,1.53,0,0,0,.14.64l-3.91,2.87v12.76h1v-12.25l3.56-2.62-.1-.14a1.48,1.48,0,0,0,.81.24,1.5,1.5,0,0,0,0-3Zm0,2a.5.5,0,0,1-.5-.5.5.5,0,0,1,.5-.5.5.5,0,0,1,.5.5A.51.51,0,0,1,2150.23,2068.42Z" transform="translate(-2038.96 -2060.42)"/><path class="cls-2" d="M2151.23,2100.85a1.49,1.49,0,0,0-1.34,2.16l0,0-2,2v1.4l2.74-2.73a1.55,1.55,0,0,0,.65.15,1.5,1.5,0,0,0,0-3Zm0,2a.5.5,0,0,1-.5-.5.5.5,0,0,1,.5-.5.5.5,0,0,1,.5.5A.51.51,0,0,1,2151.23,2102.85Z" transform="translate(-2038.96 -2060.42)"/><path class="cls-2" d="M2170.23,2095.85a1.5,1.5,0,0,0-1.5,1.5,1.4,1.4,0,0,0,.15.64l-7.78,7.77h-10l-3.26,3.26v1.42l3.68-3.68h10l8.06-8.06a1.55,1.55,0,0,0,.65.15,1.5,1.5,0,0,0,0-3Zm0,2a.5.5,0,0,1-.5-.5.5.5,0,0,1,.5-.5.5.5,0,0,1,.5.5A.51.51,0,0,1,2170.23,2097.85Z" transform="translate(-2038.96 -2060.42)"/><path class="cls-2" d="M2163.73,2083.14l-7.3-7.29v-4.39a1.5,1.5,0,1,0-1,0v4.8l7.3,7.29v7.59l-6.86,6.86a1.4,1.4,0,0,0-.64-.15,1.5,1.5,0,1,0,1.5,1.5,1.55,1.55,0,0,0-.15-.65l7.15-7.15Zm-7.8-12.59a.5.5,0,0,1-.5-.5.51.51,0,0,1,.5-.5.5.5,0,0,1,.5.5A.5.5,0,0,1,2155.93,2070.55Zm-.7,29.3a.5.5,0,0,1-.5-.5.5.5,0,0,1,.5-.5.5.5,0,0,1,.5.5A.51.51,0,0,1,2155.23,2099.85Z" transform="translate(-2038.96 -2060.42)"/><path class="cls-2" d="M2157.73,2085.14l-2.15-2.15a1.54,1.54,0,0,0,.15-.64,1.5,1.5,0,1,0-1.5,1.5,1.54,1.54,0,0,0,.64-.15l1.86,1.85v3.59l-4.86,4.86a1.4,1.4,0,0,0-.64-.15,1.5,1.5,0,1,0,1.5,1.5,1.55,1.55,0,0,0-.15-.65l5.15-5.15Zm-3.5-2.29a.5.5,0,0,1-.5-.5.5.5,0,0,1,.5-.5.5.5,0,0,1,.5.5A.51.51,0,0,1,2154.23,2082.85Zm-3,13a.5.5,0,0,1-.5-.5.5.5,0,0,1,.5-.5.5.5,0,0,1,.5.5A.51.51,0,0,1,2151.23,2095.85Z" transform="translate(-2038.96 -2060.42)"/><path class="cls-2" d="M2160.23,2110.85a1.49,1.49,0,0,0-1.34,2.16l0,0-4.91,4.92v18l-6.12,6.11v1.42l7.12-7.12v-18l4.62-4.62a1.55,1.55,0,0,0,.65.15,1.5,1.5,0,0,0,0-3Zm0,2a.5.5,0,0,1-.5-.5.5.5,0,0,1,.5-.5.5.5,0,0,1,.5.5A.51.51,0,0,1,2160.23,2112.85Z" transform="translate(-2038.96 -2060.42)"/><path class="cls-2" d="M2173.23,2110.85a1.49,1.49,0,0,0-1.34,2.16l0,0L2161,2123.91v18L2147.84,2155v1.42l14.12-14.12v-18l10.62-10.62a1.55,1.55,0,0,0,.65.15,1.5,1.5,0,0,0,0-3Zm0,2a.5.5,0,0,1-.5-.5.5.5,0,0,1,.5-.5.5.5,0,0,1,.5.5A.51.51,0,0,1,2173.23,2112.85Z" transform="translate(-2038.96 -2060.42)"/><path class="cls-2" d="M2059.69,2149.4l-7.77-7.78a1.52,1.52,0,1,0-.71.71l8.07,8.07h6.56v-1Zm-9.12-7.92a.5.5,0,0,1-.5-.5.5.5,0,0,1,.5-.5.51.51,0,0,1,.5.5A.5.5,0,0,1,2050.57,2141.48Z" transform="translate(-2038.96 -2060.42)"/><path class="cls-2" d="M2058.57,2141.48a1.51,1.51,0,0,0-.64.15l-6.86-6.86v-8l-7.71-7.3v-7.37a1.5,1.5,0,1,0-1,0v7.8l7.71,7.3v8l7.15,7.15a1.5,1.5,0,1,0,1.35-.86Zm-15.71-30.29a.51.51,0,0,1-.5-.5.5.5,0,0,1,.5-.5.5.5,0,0,1,.5.5A.5.5,0,0,1,2042.86,2111.19Zm15.71,32.29a.5.5,0,0,1-.5-.5.5.5,0,0,1,.5-.5.51.51,0,0,1,.5.5A.5.5,0,0,1,2058.57,2143.48Z" transform="translate(-2038.96 -2060.42)"/><path class="cls-2" d="M2060.57,2137.48a1.51,1.51,0,0,0-.64.15l-4.86-4.86v-3.58l1.85-1.86a1.56,1.56,0,0,0,.65.15,1.5,1.5,0,1,0-1.5-1.5,1.55,1.55,0,0,0,.15.65l-2.15,2.14v4.42l5.15,5.15a1.5,1.5,0,1,0,1.35-.86Zm-3-12a.51.51,0,0,1,.5.5.5.5,0,0,1-.5.5.5.5,0,0,1-.5-.5A.5.5,0,0,1,2057.57,2125.48Zm3,14a.5.5,0,0,1-.5-.5.5.5,0,0,1,.5-.5.51.51,0,0,1,.5.5A.5.5,0,0,1,2060.57,2139.48Z" transform="translate(-2038.96 -2060.42)"/><path class="cls-2" d="M2061.92,2156.63a1.55,1.55,0,0,0,.15-.65,1.5,1.5,0,1,0-1.5,1.5,1.55,1.55,0,0,0,.65-.15l4.62,4.62v-1.4Zm-1.35-.15a.5.5,0,0,1-.5-.5.5.5,0,0,1,.5-.5.51.51,0,0,1,.5.5A.5.5,0,0,1,2060.57,2156.48Z" transform="translate(-2038.96 -2060.42)"/><path class="cls-2" d="M2087.44,2069.19a1.5,1.5,0,0,0-.5,2.91v12.09h1V2072.1a1.5,1.5,0,0,0-.5-2.91Zm0,2a.51.51,0,0,1-.5-.5.5.5,0,0,1,.5-.5.5.5,0,0,1,.5.5A.5.5,0,0,1,2087.44,2071.19Z" transform="translate(-2038.96 -2060.42)"/><path class="cls-2" d="M2079.81,2068.56a1.71,1.71,0,0,0,.15-.64,1.5,1.5,0,1,0-1.5,1.5,1.55,1.55,0,0,0,.64-.15l1.63,1.62v13.3h1v-13.71Zm-1.35-.14a.5.5,0,0,1-.5-.5.5.5,0,0,1,.5-.5.5.5,0,0,1,.5.5A.51.51,0,0,1,2078.46,2068.42Z" transform="translate(-2038.96 -2060.42)"/><path class="cls-2" d="M2078,2077.51v-2.8l-3.15-3.15a1.71,1.71,0,0,0,.15-.64,1.5,1.5,0,1,0-1.5,1.5,1.55,1.55,0,0,0,.64-.15l2.86,2.85v2.39a1.5,1.5,0,0,0,.5,2.91,1.5,1.5,0,0,0,.5-2.91Zm-4.5-6.09a.5.5,0,0,1-.5-.5.5.5,0,0,1,.5-.5.5.5,0,0,1,.5.5A.51.51,0,0,1,2073.46,2071.42Zm4,8a.5.5,0,0,1-.5-.5.5.5,0,0,1,.5-.5.5.5,0,0,1,.5.5A.51.51,0,0,1,2077.46,2079.42Z" transform="translate(-2038.96 -2060.42)"/><path class="cls-2" d="M2061.81,2070.56a1.71,1.71,0,0,0,.15-.64,1.5,1.5,0,1,0-1.5,1.5,1.55,1.55,0,0,0,.64-.15l6.63,6.62v6.3h1v-6.71Zm-1.35-.14a.5.5,0,0,1-.5-.5.5.5,0,0,1,.5-.5.5.5,0,0,1,.5.5A.51.51,0,0,1,2060.46,2070.42Z" transform="translate(-2038.96 -2060.42)"/><path class="cls-2" d="M2063.81,2103a1.71,1.71,0,0,0,.15-.64,1.5,1.5,0,1,0-1.5,1.5,1.54,1.54,0,0,0,.64-.15l2.74,2.73V2105Zm-1.35-.14a.5.5,0,0,1-.5-.5.5.5,0,0,1,.5-.5.5.5,0,0,1,.5.5A.51.51,0,0,1,2062.46,2102.85Z" transform="translate(-2038.96 -2060.42)"/><path class="cls-2" d="M2062.58,2105.76h-10l-7.78-7.77a1.41,1.41,0,0,0,.16-.64,1.5,1.5,0,1,0-1.5,1.5,1.54,1.54,0,0,0,.64-.15l8.07,8.06h10l3.67,3.68V2109Zm-19.12-7.91a.5.5,0,0,1-.5-.5.5.5,0,0,1,.5-.5.5.5,0,0,1,.5.5A.51.51,0,0,1,2043.46,2097.85Z" transform="translate(-2038.96 -2060.42)"/><path class="cls-2" d="M2058.46,2097.85a1.41,1.41,0,0,0-.65.15l-6.85-6.86v-7.59l7.29-7.29v-7.8a1.5,1.5,0,1,0-1,0v7.39l-7.29,7.29v8.41l7.15,7.15a1.41,1.41,0,0,0-.15.65,1.5,1.5,0,1,0,1.5-1.5Zm-.71-31.3a.51.51,0,0,1,.5.5.5.5,0,0,1-.5.5.5.5,0,0,1-.5-.5A.5.5,0,0,1,2057.75,2066.55Zm.71,33.3a.5.5,0,0,1-.5-.5.5.5,0,0,1,.5-.5.5.5,0,0,1,.5.5A.51.51,0,0,1,2058.46,2099.85Z" transform="translate(-2038.96 -2060.42)"/><path class="cls-2" d="M2062.46,2093.85a1.41,1.41,0,0,0-.65.15l-4.85-4.86v-3.59l1.85-1.85a1.55,1.55,0,0,0,.65.15,1.5,1.5,0,1,0-1.5-1.5,1.71,1.71,0,0,0,.14.64l-2.14,2.15v4.41l5.15,5.15a1.41,1.41,0,0,0-.15.65,1.5,1.5,0,1,0,1.5-1.5Zm-3-12a.5.5,0,0,1,.5.5.51.51,0,0,1-.5.5.5.5,0,0,1-.5-.5A.5.5,0,0,1,2059.46,2081.85Zm3,14a.5.5,0,0,1-.5-.5.5.5,0,0,1,.5-.5.5.5,0,0,1,.5.5A.51.51,0,0,1,2062.46,2095.85Z" transform="translate(-2038.96 -2060.42)"/><path class="cls-2" d="M2059.73,2185.91v-18l-4.92-4.92a1.71,1.71,0,0,0,.15-.64,1.5,1.5,0,1,0-1.5,1.5,1.54,1.54,0,0,0,.64-.15l4.63,4.62v18l7.11,7.12V2192Zm-6.27-23.06a.5.5,0,0,1-.5-.5.5.5,0,0,1,.5-.5.5.5,0,0,1,.5.5A.51.51,0,0,1,2053.46,2162.85Z" transform="translate(-2038.96 -2060.42)"/><path class="cls-2" d="M2056,2177.94v-5.8l-6.15-6.15a1.71,1.71,0,0,0,.15-.64,1.5,1.5,0,1,0-1.5,1.5,1.54,1.54,0,0,0,.64-.15l5.86,5.85v5.39a1.48,1.48,0,0,0-1,1.41,1.5,1.5,0,1,0,2-1.41Zm-7.5-12.09a.5.5,0,0,1-.5-.5.5.5,0,0,1,.5-.5.5.5,0,0,1,.5.5A.51.51,0,0,1,2048.46,2165.85Zm7,14a.5.5,0,0,1-.5-.5.5.5,0,0,1,.5-.5.5.5,0,0,1,.5.5A.51.51,0,0,1,2055.46,2179.85Z" transform="translate(-2038.96 -2060.42)"/><path class="cls-2" d="M2052.73,2191.91v-18L2041.81,2163a1.72,1.72,0,0,0,.15-.64,1.5,1.5,0,1,0-1.5,1.5,1.54,1.54,0,0,0,.64-.15l10.63,10.62v18l14.11,14.12V2205Zm-12.27-29.06a.5.5,0,0,1-.5-.5.5.5,0,0,1,.5-.5.5.5,0,0,1,.5.5A.51.51,0,0,1,2040.46,2162.85Z" transform="translate(-2038.96 -2060.42)"/><path class="cls-2" d="M2104.58,2074a1.54,1.54,0,0,0,.15-.64,1.5,1.5,0,1,0-1.5,1.5,1.54,1.54,0,0,0,.64-.15l1.86,1.85v2.59l-3.3,3.29v1.76h1v-1.34l3.3-3.3v-3.41Zm-1.35-.14a.5.5,0,0,1-.5-.5.5.5,0,0,1,.5-.5.5.5,0,0,1,.5.5A.51.51,0,0,1,2103.23,2073.85Z" transform="translate(-2038.96 -2060.42)"/><path class="cls-2" d="M2092.44,2077.19a1.5,1.5,0,0,0-.5,2.91v4.09h1v-4.09a1.5,1.5,0,0,0-.5-2.91Zm0,2a.51.51,0,0,1-.5-.5.5.5,0,0,1,.5-.5.5.5,0,0,1,.5.5A.5.5,0,0,1,2092.44,2079.19Z" transform="translate(-2038.96 -2060.42)"/><path class="cls-2" d="M2121.44,2078.19a1.5,1.5,0,0,0-.5,2.91v3.09h1v-3.09a1.5,1.5,0,0,0-.5-2.91Zm0,2a.51.51,0,0,1-.5-.5.5.5,0,0,1,.5-.5.5.5,0,0,1,.5.5A.5.5,0,0,1,2121.44,2080.19Z" transform="translate(-2038.96 -2060.42)"/></g></g><g id="Layer_194" data-name="Layer 194"><g class="cls-3"><path class="cls-2" d="M2143.84,2098.69h-74a.5.5,0,0,0-.5.5v102a.5.5,0,0,0,.5.5h74a.5.5,0,0,0,.5-.5v-102A.5.5,0,0,0,2143.84,2098.69Zm-.5,1v61h-73v-61Zm-24.5,91a.5.5,0,0,0-.5.5v1.5h-23v-1.5a.5.5,0,0,0-1,0v1.5h-19v-3h63v3h-19v-1.5A.5.5,0,0,0,2118.84,2190.69Zm20-2h-64a.5.5,0,0,0-.5.5v3.5h-4v-7h73v7h-4v-3.5A.5.5,0,0,0,2138.84,2188.69Zm-68.5-4v-11h73v11Zm0-12v-11h73v11Zm68,28h-19v-1.5a.5.5,0,0,0-1,0v1.5h-23v-1.5a.5.5,0,0,0-1,0v1.5h-19v-3h63Zm1,0v-3.5a.5.5,0,0,0-.5-.5h-64a.5.5,0,0,0-.5.5v3.5h-4v-7h73v7Z" transform="translate(-2038.96 -2060.42)"/><path class="cls-2" d="M2075.84,2095.69h23a.5.5,0,0,0,0-1h-23a.5.5,0,0,0,0,1Z" transform="translate(-2038.96 -2060.42)"/><path class="cls-2" d="M2114.84,2095.69h23a.5.5,0,0,0,0-1h-23a.5.5,0,0,0,0,1Z" transform="translate(-2038.96 -2060.42)"/><path class="cls-2" d="M2075.84,2093.69h23a.5.5,0,0,0,0-1h-23a.5.5,0,0,0,0,1Z" transform="translate(-2038.96 -2060.42)"/><path class="cls-2" d="M2114.84,2093.69h23a.5.5,0,0,0,0-1h-23a.5.5,0,0,0,0,1Z" transform="translate(-2038.96 -2060.42)"/><path class="cls-2" d="M2075.84,2091.69h23a.5.5,0,0,0,0-1h-23a.5.5,0,0,0,0,1Z" transform="translate(-2038.96 -2060.42)"/><path class="cls-2" d="M2114.84,2091.69h23a.5.5,0,0,0,0-1h-23a.5.5,0,0,0,0,1Z" transform="translate(-2038.96 -2060.42)"/><path class="cls-2" d="M2075.84,2089.69h23a.5.5,0,0,0,0-1h-23a.5.5,0,0,0,0,1Z" transform="translate(-2038.96 -2060.42)"/><path class="cls-2" d="M2114.84,2089.69h23a.5.5,0,0,0,0-1h-23a.5.5,0,0,0,0,1Z" transform="translate(-2038.96 -2060.42)"/><path class="cls-2" d="M2150.84,2207.69h-3v-122.5a1,1,0,0,0-1-1h-80a1,1,0,0,0-1,1v122.5h-7.21a.5.5,0,1,0,0,1h92.21a.5.5,0,1,0,0-1Zm-83-121.5h78v121.5h-78Z" transform="translate(-2038.96 -2060.42)"/><path class="cls-2" d="M2156.84,2207.69h-4a.5.5,0,0,0,0,1h4a.5.5,0,1,0,0-1Z" transform="translate(-2038.96 -2060.42)"/><path class="cls-2" d="M2140.88,2178.69h-19.79l-1.85-1.85a.51.51,0,0,0-.35-.15h-24a.51.51,0,0,0-.35.15l-1.85,1.85h-19.83a.5.5,0,0,0,0,1h19.83l1.85,1.85a.51.51,0,0,0,.35.15h24a.51.51,0,0,0,.35-.15l1.85-1.85h19.79a.5.5,0,0,0,0-1Zm-22.21,2h-23.59l-1.5-1.5,1.5-1.5h23.59l1.5,1.5Z" transform="translate(-2038.96 -2060.42)"/><path class="cls-2" d="M2116.88,2178.69h-20a.5.5,0,0,0,0,1h20a.5.5,0,0,0,0-1Z" transform="translate(-2038.96 -2060.42)"/><path class="cls-2" d="M2140.88,2166.69h-19.79l-1.85-1.85a.51.51,0,0,0-.35-.15h-24a.51.51,0,0,0-.35.15l-1.85,1.85h-19.83a.5.5,0,0,0,0,1h19.83l1.85,1.85a.51.51,0,0,0,.35.15h24a.51.51,0,0,0,.35-.15l1.85-1.85h19.79a.5.5,0,0,0,0-1Zm-22.21,2h-23.59l-1.5-1.5,1.5-1.5h23.59l1.5,1.5Z" transform="translate(-2038.96 -2060.42)"/><path class="cls-2" d="M2116.88,2166.69h-20a.5.5,0,0,0,0,1h20a.5.5,0,0,0,0-1Z" transform="translate(-2038.96 -2060.42)"/><path class="cls-2" d="M2113.86,2186.63h-14a.5.5,0,0,0,0,1h14a.5.5,0,0,0,0-1Z" transform="translate(-2038.96 -2060.42)"/><path class="cls-2" d="M2135.86,2186.63h-14a.5.5,0,0,0,0,1h14a.5.5,0,0,0,0-1Z" transform="translate(-2038.96 -2060.42)"/><path class="cls-2" d="M2091.86,2186.63h-14a.5.5,0,0,0,0,1h14a.5.5,0,0,0,0-1Z" transform="translate(-2038.96 -2060.42)"/><path class="cls-2" d="M2113.86,2194.63h-14a.5.5,0,0,0,0,1h14a.5.5,0,0,0,0-1Z" transform="translate(-2038.96 -2060.42)"/><path class="cls-2" d="M2135.86,2194.63h-14a.5.5,0,0,0,0,1h14a.5.5,0,0,0,0-1Z" transform="translate(-2038.96 -2060.42)"/><path class="cls-2" d="M2091.86,2194.63h-14a.5.5,0,0,0,0,1h14a.5.5,0,0,0,0-1Z" transform="translate(-2038.96 -2060.42)"/><circle class="cls-2" cx="32.88" cy="126.77" r="1"/><circle class="cls-2" cx="102.88" cy="126.77" r="1"/><circle class="cls-2" cx="32.88" cy="134.77" r="1"/><circle class="cls-2" cx="102.88" cy="134.77" r="1"/><path class="cls-2" d="M2071.84,2119.58h70a.5.5,0,0,0,.5-.5v-18a.5.5,0,0,0-.5-.5h-70a.5.5,0,0,0-.5.5v18A.5.5,0,0,0,2071.84,2119.58Zm.5-14h2v4.55a1.41,1.41,0,0,0,.42,1,1.51,1.51,0,0,0,1.08.44h0l18,0a1.48,1.48,0,0,0,1.5-1.45v-4.52h1v4.55a1.41,1.41,0,0,0,.42,1,1.51,1.51,0,0,0,1.08.44h0l24,0a1.48,1.48,0,0,0,1.5-1.45v-4.52h2v13h-2v-4.52a1.48,1.48,0,0,0-1.5-1.45l-24,0h0a1.51,1.51,0,0,0-1.08.44,1.41,1.41,0,0,0-.42,1v4.55h-1v-4.52a1.48,1.48,0,0,0-1.5-1.45l-18,0h0a1.51,1.51,0,0,0-1.08.44,1.41,1.41,0,0,0-.42,1v4.55h-2Zm5,0v1h-.5a.5.5,0,0,0-.5.5v2a.5.5,0,0,0,.5.5h4a.5.5,0,0,0,.5-.5v-2a.5.5,0,0,0-.5-.5h-.5v-1h3v1h-.5a.5.5,0,0,0-.5.5v2a.5.5,0,0,0,.5.5h4a.5.5,0,0,0,.5-.5v-2a.5.5,0,0,0-.5-.5h-.5v-1h3v1h-.5a.5.5,0,0,0-.5.5v2a.5.5,0,0,0,.5.5h4a.5.5,0,0,0,.5-.5v-2a.5.5,0,0,0-.5-.5h-.5v-1h2v4.52a.48.48,0,0,1-.5.45l-18,0h0a.52.52,0,0,1-.37-.15.42.42,0,0,1-.13-.3v-4.55Zm2,0v1.5a.5.5,0,0,0,.5.5h.5v1h-3v-1h.5a.5.5,0,0,0,.5-.5v-1.5Zm6,0v1.5a.5.5,0,0,0,.5.5h.5v1h-3v-1h.5a.5.5,0,0,0,.5-.5v-1.5Zm6,0v1.5a.5.5,0,0,0,.5.5h.5v1h-3v-1h.5a.5.5,0,0,0,.5-.5v-1.5Zm8,0v1h-.5a.5.5,0,0,0-.5.5v2a.5.5,0,0,0,.5.5h4a.5.5,0,0,0,.5-.5v-2a.5.5,0,0,0-.5-.5h-.5v-1h3v1h-.5a.5.5,0,0,0-.5.5v2a.5.5,0,0,0,.5.5h4a.5.5,0,0,0,.5-.5v-2a.5.5,0,0,0-.5-.5h-.5v-1h3v1h-.5a.5.5,0,0,0-.5.5v2a.5.5,0,0,0,.5.5h4a.5.5,0,0,0,.5-.5v-2a.5.5,0,0,0-.5-.5h-.5v-1h3v1h-.5a.5.5,0,0,0-.5.5v2a.5.5,0,0,0,.5.5h4a.5.5,0,0,0,.5-.5v-2a.5.5,0,0,0-.5-.5h-.5v-1h2v4.52a.48.48,0,0,1-.5.45l-24,0h0a.52.52,0,0,1-.37-.15.42.42,0,0,1-.13-.3v-4.55Zm2,0v1.5a.5.5,0,0,0,.5.5h.5v1h-3v-1h.5a.5.5,0,0,0,.5-.5v-1.5Zm6,0v1.5a.5.5,0,0,0,.5.5h.5v1h-3v-1h.5a.5.5,0,0,0,.5-.5v-1.5Zm6,0v1.5a.5.5,0,0,0,.5.5h.5v1h-3v-1h.5a.5.5,0,0,0,.5-.5v-1.5Zm6,0v1.5a.5.5,0,0,0,.5.5h.5v1h-3v-1h.5a.5.5,0,0,0,.5-.5v-1.5Zm-1,11.5a.5.5,0,0,0-.5-.5h-.5v-1h3v1h-.5a.5.5,0,0,0-.5.5v1.5h-1Zm2,.5h.5a.5.5,0,0,0,.5-.5v-2a.5.5,0,0,0-.5-.5h-4a.5.5,0,0,0-.5.5v2a.5.5,0,0,0,.5.5h.5v1h-3v-1h.5a.5.5,0,0,0,.5-.5v-2a.5.5,0,0,0-.5-.5h-4a.5.5,0,0,0-.5.5v2a.5.5,0,0,0,.5.5h.5v1h-3v-1h.5a.5.5,0,0,0,.5-.5v-2a.5.5,0,0,0-.5-.5h-4a.5.5,0,0,0-.5.5v2a.5.5,0,0,0,.5.5h.5v1h-3v-1h.5a.5.5,0,0,0,.5-.5v-2a.5.5,0,0,0-.5-.5h-4a.5.5,0,0,0-.5.5v2a.5.5,0,0,0,.5.5h.5v1h-2V2114a.42.42,0,0,1,.13-.3.52.52,0,0,1,.37-.15h0l24,0a.48.48,0,0,1,.5.45v4.52h-2Zm-8-.5a.5.5,0,0,0-.5-.5h-.5v-1h3v1h-.5a.5.5,0,0,0-.5.5v1.5h-1Zm-6,0a.5.5,0,0,0-.5-.5h-.5v-1h3v1h-.5a.5.5,0,0,0-.5.5v1.5h-1Zm-6,0a.5.5,0,0,0-.5-.5h-.5v-1h3v1h-.5a.5.5,0,0,0-.5.5v1.5h-1Zm-10,0a.5.5,0,0,0-.5-.5h-.5v-1h3v1h-.5a.5.5,0,0,0-.5.5v1.5h-1Zm2,.5h.5a.5.5,0,0,0,.5-.5v-2a.5.5,0,0,0-.5-.5h-4a.5.5,0,0,0-.5.5v2a.5.5,0,0,0,.5.5h.5v1h-3v-1h.5a.5.5,0,0,0,.5-.5v-2a.5.5,0,0,0-.5-.5h-4a.5.5,0,0,0-.5.5v2a.5.5,0,0,0,.5.5h.5v1h-3v-1h.5a.5.5,0,0,0,.5-.5v-2a.5.5,0,0,0-.5-.5h-4a.5.5,0,0,0-.5.5v2a.5.5,0,0,0,.5.5h.5v1h-2V2114a.42.42,0,0,1,.13-.3.52.52,0,0,1,.37-.15h0l18,0a.48.48,0,0,1,.5.45v4.52h-2Zm-8-.5a.5.5,0,0,0-.5-.5h-.5v-1h3v1h-.5a.5.5,0,0,0-.5.5v1.5h-1Zm-6,0a.5.5,0,0,0-.5-.5h-.5v-1h3v1h-.5a.5.5,0,0,0-.5.5v1.5h-1Zm48,1.5v-7h15v7Zm15-8h-15v-9h15Zm-16-9v3h-53v-3Z" transform="translate(-2038.96 -2060.42)"/><rect class="cls-2" x="34.92" y="42.17" width="2" height="1"/><rect class="cls-2" x="37.92" y="42.17" width="1" height="1"/><rect class="cls-2" x="39.92" y="42.17" width="1" height="1"/><rect class="cls-2" x="78.92" y="42.17" width="6" height="1"/><rect class="cls-2" x="70.92" y="42.17" width="6" height="1"/><path class="cls-2" d="M2127.84,2109.58h12a.5.5,0,0,0,.5-.5v-6a.5.5,0,0,0-.5-.5h-12a.5.5,0,0,0-.5.5v6A.5.5,0,0,0,2127.84,2109.58Zm.5-2h1v1h-1Zm9-1h-1v-1h1Zm1-1h1v1h-1Zm-6,2h1v1h-1Zm-1,1h-1v-1h1Zm2-2h-1v-1h1Zm1-1h1v1h-1Zm0,2h1v1h-1Zm2,0h1v1h-1Zm0-3v-1h1v1Zm-1,0h-1v-1h1Zm-2,0h-1v-1h1Zm-2,0h-1v-1h1Zm0,1v1h-1v-1Zm-2,1h-1v-1h1Zm9,2v-1h1v1Zm1-4h-1v-1h1Zm-10-1v1h-1v-1Z" transform="translate(-2038.96 -2060.42)"/><path class="cls-2" d="M2130.84,2112.58h-2a.5.5,0,0,0-.5.5v4a.5.5,0,0,0,.5.5h2a.5.5,0,0,0,.5-.5v-4A.5.5,0,0,0,2130.84,2112.58Zm-.5,4h-1v-3h1Z" transform="translate(-2038.96 -2060.42)"/><path class="cls-2" d="M2134.84,2112.58h-2a.5.5,0,0,0-.5.5v4a.5.5,0,0,0,.5.5h2a.5.5,0,0,0,.5-.5v-4A.5.5,0,0,0,2134.84,2112.58Zm-.5,4h-1v-3h1Z" transform="translate(-2038.96 -2060.42)"/><path class="cls-2" d="M2138.84,2112.58h-2a.5.5,0,0,0-.5.5v4a.5.5,0,0,0,.5.5h2a.5.5,0,0,0,.5-.5v-4A.5.5,0,0,0,2138.84,2112.58Zm-.5,4h-1v-3h1Z" transform="translate(-2038.96 -2060.42)"/><path class="cls-2" d="M2071.84,2139.58h70a.5.5,0,0,0,.5-.5v-18a.5.5,0,0,0-.5-.5h-70a.5.5,0,0,0-.5.5v18A.5.5,0,0,0,2071.84,2139.58Zm.5-14h2v4.55a1.41,1.41,0,0,0,.42,1,1.51,1.51,0,0,0,1.08.44h0l18,0a1.48,1.48,0,0,0,1.5-1.45v-4.52h1v4.55a1.41,1.41,0,0,0,.42,1,1.51,1.51,0,0,0,1.08.44h0l24,0a1.48,1.48,0,0,0,1.5-1.45v-4.52h2v13h-2v-4.52a1.48,1.48,0,0,0-1.5-1.45l-24,0h0a1.51,1.51,0,0,0-1.08.44,1.41,1.41,0,0,0-.42,1v4.55h-1v-4.52a1.48,1.48,0,0,0-1.5-1.45l-18,0h0a1.51,1.51,0,0,0-1.08.44,1.41,1.41,0,0,0-.42,1v4.55h-2Zm5,0v1h-.5a.5.5,0,0,0-.5.5v2a.5.5,0,0,0,.5.5h4a.5.5,0,0,0,.5-.5v-2a.5.5,0,0,0-.5-.5h-.5v-1h3v1h-.5a.5.5,0,0,0-.5.5v2a.5.5,0,0,0,.5.5h4a.5.5,0,0,0,.5-.5v-2a.5.5,0,0,0-.5-.5h-.5v-1h3v1h-.5a.5.5,0,0,0-.5.5v2a.5.5,0,0,0,.5.5h4a.5.5,0,0,0,.5-.5v-2a.5.5,0,0,0-.5-.5h-.5v-1h2v4.52a.48.48,0,0,1-.5.45l-18,0h0a.52.52,0,0,1-.37-.15.42.42,0,0,1-.13-.3v-4.55Zm2,0v1.5a.5.5,0,0,0,.5.5h.5v1h-3v-1h.5a.5.5,0,0,0,.5-.5v-1.5Zm6,0v1.5a.5.5,0,0,0,.5.5h.5v1h-3v-1h.5a.5.5,0,0,0,.5-.5v-1.5Zm6,0v1.5a.5.5,0,0,0,.5.5h.5v1h-3v-1h.5a.5.5,0,0,0,.5-.5v-1.5Zm8,0v1h-.5a.5.5,0,0,0-.5.5v2a.5.5,0,0,0,.5.5h4a.5.5,0,0,0,.5-.5v-2a.5.5,0,0,0-.5-.5h-.5v-1h3v1h-.5a.5.5,0,0,0-.5.5v2a.5.5,0,0,0,.5.5h4a.5.5,0,0,0,.5-.5v-2a.5.5,0,0,0-.5-.5h-.5v-1h3v1h-.5a.5.5,0,0,0-.5.5v2a.5.5,0,0,0,.5.5h4a.5.5,0,0,0,.5-.5v-2a.5.5,0,0,0-.5-.5h-.5v-1h3v1h-.5a.5.5,0,0,0-.5.5v2a.5.5,0,0,0,.5.5h4a.5.5,0,0,0,.5-.5v-2a.5.5,0,0,0-.5-.5h-.5v-1h2v4.52a.48.48,0,0,1-.5.45l-24,0h0a.52.52,0,0,1-.37-.15.42.42,0,0,1-.13-.3v-4.55Zm2,0v1.5a.5.5,0,0,0,.5.5h.5v1h-3v-1h.5a.5.5,0,0,0,.5-.5v-1.5Zm6,0v1.5a.5.5,0,0,0,.5.5h.5v1h-3v-1h.5a.5.5,0,0,0,.5-.5v-1.5Zm6,0v1.5a.5.5,0,0,0,.5.5h.5v1h-3v-1h.5a.5.5,0,0,0,.5-.5v-1.5Zm6,0v1.5a.5.5,0,0,0,.5.5h.5v1h-3v-1h.5a.5.5,0,0,0,.5-.5v-1.5Zm-1,11.5a.5.5,0,0,0-.5-.5h-.5v-1h3v1h-.5a.5.5,0,0,0-.5.5v1.5h-1Zm2,.5h.5a.5.5,0,0,0,.5-.5v-2a.5.5,0,0,0-.5-.5h-4a.5.5,0,0,0-.5.5v2a.5.5,0,0,0,.5.5h.5v1h-3v-1h.5a.5.5,0,0,0,.5-.5v-2a.5.5,0,0,0-.5-.5h-4a.5.5,0,0,0-.5.5v2a.5.5,0,0,0,.5.5h.5v1h-3v-1h.5a.5.5,0,0,0,.5-.5v-2a.5.5,0,0,0-.5-.5h-4a.5.5,0,0,0-.5.5v2a.5.5,0,0,0,.5.5h.5v1h-3v-1h.5a.5.5,0,0,0,.5-.5v-2a.5.5,0,0,0-.5-.5h-4a.5.5,0,0,0-.5.5v2a.5.5,0,0,0,.5.5h.5v1h-2V2134a.42.42,0,0,1,.13-.3.52.52,0,0,1,.37-.15h0l24,0a.48.48,0,0,1,.5.45v4.52h-2Zm-8-.5a.5.5,0,0,0-.5-.5h-.5v-1h3v1h-.5a.5.5,0,0,0-.5.5v1.5h-1Zm-6,0a.5.5,0,0,0-.5-.5h-.5v-1h3v1h-.5a.5.5,0,0,0-.5.5v1.5h-1Zm-6,0a.5.5,0,0,0-.5-.5h-.5v-1h3v1h-.5a.5.5,0,0,0-.5.5v1.5h-1Zm-10,0a.5.5,0,0,0-.5-.5h-.5v-1h3v1h-.5a.5.5,0,0,0-.5.5v1.5h-1Zm2,.5h.5a.5.5,0,0,0,.5-.5v-2a.5.5,0,0,0-.5-.5h-4a.5.5,0,0,0-.5.5v2a.5.5,0,0,0,.5.5h.5v1h-3v-1h.5a.5.5,0,0,0,.5-.5v-2a.5.5,0,0,0-.5-.5h-4a.5.5,0,0,0-.5.5v2a.5.5,0,0,0,.5.5h.5v1h-3v-1h.5a.5.5,0,0,0,.5-.5v-2a.5.5,0,0,0-.5-.5h-4a.5.5,0,0,0-.5.5v2a.5.5,0,0,0,.5.5h.5v1h-2V2134a.42.42,0,0,1,.13-.3.52.52,0,0,1,.37-.15h0l18,0a.48.48,0,0,1,.5.45v4.52h-2Zm-8-.5a.5.5,0,0,0-.5-.5h-.5v-1h3v1h-.5a.5.5,0,0,0-.5.5v1.5h-1Zm-6,0a.5.5,0,0,0-.5-.5h-.5v-1h3v1h-.5a.5.5,0,0,0-.5.5v1.5h-1Zm48,1.5v-7h15v7Zm15-8h-15v-9h15Zm-16-9v3h-53v-3Z" transform="translate(-2038.96 -2060.42)"/><rect class="cls-2" x="34.92" y="62.17" width="2" height="1"/><rect class="cls-2" x="37.92" y="62.17" width="1" height="1"/><rect class="cls-2" x="39.92" y="62.17" width="1" height="1"/><rect class="cls-2" x="78.92" y="62.17" width="6" height="1"/><rect class="cls-2" x="70.92" y="62.17" width="6" height="1"/><path class="cls-2" d="M2127.84,2129.58h12a.5.5,0,0,0,.5-.5v-6a.5.5,0,0,0-.5-.5h-12a.5.5,0,0,0-.5.5v6A.5.5,0,0,0,2127.84,2129.58Zm.5-2h1v1h-1Zm9-1h-1v-1h1Zm1-1h1v1h-1Zm-6,2h1v1h-1Zm-1,1h-1v-1h1Zm2-2h-1v-1h1Zm1-1h1v1h-1Zm0,2h1v1h-1Zm2,0h1v1h-1Zm0-3v-1h1v1Zm-1,0h-1v-1h1Zm-2,0h-1v-1h1Zm-2,0h-1v-1h1Zm0,1v1h-1v-1Zm-2,1h-1v-1h1Zm9,2v-1h1v1Zm1-4h-1v-1h1Zm-10-1v1h-1v-1Z" transform="translate(-2038.96 -2060.42)"/><path class="cls-2" d="M2130.84,2132.58h-2a.5.5,0,0,0-.5.5v4a.5.5,0,0,0,.5.5h2a.5.5,0,0,0,.5-.5v-4A.5.5,0,0,0,2130.84,2132.58Zm-.5,4h-1v-3h1Z" transform="translate(-2038.96 -2060.42)"/><path class="cls-2" d="M2134.84,2132.58h-2a.5.5,0,0,0-.5.5v4a.5.5,0,0,0,.5.5h2a.5.5,0,0,0,.5-.5v-4A.5.5,0,0,0,2134.84,2132.58Zm-.5,4h-1v-3h1Z" transform="translate(-2038.96 -2060.42)"/><path class="cls-2" d="M2138.84,2132.58h-2a.5.5,0,0,0-.5.5v4a.5.5,0,0,0,.5.5h2a.5.5,0,0,0,.5-.5v-4A.5.5,0,0,0,2138.84,2132.58Zm-.5,4h-1v-3h1Z" transform="translate(-2038.96 -2060.42)"/><path class="cls-2" d="M2071.84,2159.58h70a.5.5,0,0,0,.5-.5v-18a.5.5,0,0,0-.5-.5h-70a.5.5,0,0,0-.5.5v18A.5.5,0,0,0,2071.84,2159.58Zm.5-14h2v4.55a1.41,1.41,0,0,0,.42,1,1.51,1.51,0,0,0,1.08.44h0l18,0a1.48,1.48,0,0,0,1.5-1.45v-4.52h1v4.55a1.41,1.41,0,0,0,.42,1,1.51,1.51,0,0,0,1.08.44h0l24,0a1.48,1.48,0,0,0,1.5-1.45v-4.52h2v13h-2v-4.52a1.48,1.48,0,0,0-1.5-1.45l-24,0h0a1.51,1.51,0,0,0-1.08.44,1.41,1.41,0,0,0-.42,1v4.55h-1v-4.52a1.48,1.48,0,0,0-1.5-1.45l-18,0h0a1.51,1.51,0,0,0-1.08.44,1.41,1.41,0,0,0-.42,1v4.55h-2Zm5,0v1h-.5a.5.5,0,0,0-.5.5v2a.5.5,0,0,0,.5.5h4a.5.5,0,0,0,.5-.5v-2a.5.5,0,0,0-.5-.5h-.5v-1h3v1h-.5a.5.5,0,0,0-.5.5v2a.5.5,0,0,0,.5.5h4a.5.5,0,0,0,.5-.5v-2a.5.5,0,0,0-.5-.5h-.5v-1h3v1h-.5a.5.5,0,0,0-.5.5v2a.5.5,0,0,0,.5.5h4a.5.5,0,0,0,.5-.5v-2a.5.5,0,0,0-.5-.5h-.5v-1h2v4.52a.48.48,0,0,1-.5.45l-18,0h0a.52.52,0,0,1-.37-.15.42.42,0,0,1-.13-.3v-4.55Zm2,0v1.5a.5.5,0,0,0,.5.5h.5v1h-3v-1h.5a.5.5,0,0,0,.5-.5v-1.5Zm6,0v1.5a.5.5,0,0,0,.5.5h.5v1h-3v-1h.5a.5.5,0,0,0,.5-.5v-1.5Zm6,0v1.5a.5.5,0,0,0,.5.5h.5v1h-3v-1h.5a.5.5,0,0,0,.5-.5v-1.5Zm8,0v1h-.5a.5.5,0,0,0-.5.5v2a.5.5,0,0,0,.5.5h4a.5.5,0,0,0,.5-.5v-2a.5.5,0,0,0-.5-.5h-.5v-1h3v1h-.5a.5.5,0,0,0-.5.5v2a.5.5,0,0,0,.5.5h4a.5.5,0,0,0,.5-.5v-2a.5.5,0,0,0-.5-.5h-.5v-1h3v1h-.5a.5.5,0,0,0-.5.5v2a.5.5,0,0,0,.5.5h4a.5.5,0,0,0,.5-.5v-2a.5.5,0,0,0-.5-.5h-.5v-1h3v1h-.5a.5.5,0,0,0-.5.5v2a.5.5,0,0,0,.5.5h4a.5.5,0,0,0,.5-.5v-2a.5.5,0,0,0-.5-.5h-.5v-1h2v4.52a.48.48,0,0,1-.5.45l-24,0h0a.52.52,0,0,1-.37-.15.42.42,0,0,1-.13-.3v-4.55Zm2,0v1.5a.5.5,0,0,0,.5.5h.5v1h-3v-1h.5a.5.5,0,0,0,.5-.5v-1.5Zm6,0v1.5a.5.5,0,0,0,.5.5h.5v1h-3v-1h.5a.5.5,0,0,0,.5-.5v-1.5Zm6,0v1.5a.5.5,0,0,0,.5.5h.5v1h-3v-1h.5a.5.5,0,0,0,.5-.5v-1.5Zm6,0v1.5a.5.5,0,0,0,.5.5h.5v1h-3v-1h.5a.5.5,0,0,0,.5-.5v-1.5Zm-1,11.5a.5.5,0,0,0-.5-.5h-.5v-1h3v1h-.5a.5.5,0,0,0-.5.5v1.5h-1Zm2,.5h.5a.5.5,0,0,0,.5-.5v-2a.5.5,0,0,0-.5-.5h-4a.5.5,0,0,0-.5.5v2a.5.5,0,0,0,.5.5h.5v1h-3v-1h.5a.5.5,0,0,0,.5-.5v-2a.5.5,0,0,0-.5-.5h-4a.5.5,0,0,0-.5.5v2a.5.5,0,0,0,.5.5h.5v1h-3v-1h.5a.5.5,0,0,0,.5-.5v-2a.5.5,0,0,0-.5-.5h-4a.5.5,0,0,0-.5.5v2a.5.5,0,0,0,.5.5h.5v1h-3v-1h.5a.5.5,0,0,0,.5-.5v-2a.5.5,0,0,0-.5-.5h-4a.5.5,0,0,0-.5.5v2a.5.5,0,0,0,.5.5h.5v1h-2V2154a.42.42,0,0,1,.13-.3.52.52,0,0,1,.37-.15h0l24,0a.48.48,0,0,1,.5.45v4.52h-2Zm-8-.5a.5.5,0,0,0-.5-.5h-.5v-1h3v1h-.5a.5.5,0,0,0-.5.5v1.5h-1Zm-6,0a.5.5,0,0,0-.5-.5h-.5v-1h3v1h-.5a.5.5,0,0,0-.5.5v1.5h-1Zm-6,0a.5.5,0,0,0-.5-.5h-.5v-1h3v1h-.5a.5.5,0,0,0-.5.5v1.5h-1Zm-10,0a.5.5,0,0,0-.5-.5h-.5v-1h3v1h-.5a.5.5,0,0,0-.5.5v1.5h-1Zm2,.5h.5a.5.5,0,0,0,.5-.5v-2a.5.5,0,0,0-.5-.5h-4a.5.5,0,0,0-.5.5v2a.5.5,0,0,0,.5.5h.5v1h-3v-1h.5a.5.5,0,0,0,.5-.5v-2a.5.5,0,0,0-.5-.5h-4a.5.5,0,0,0-.5.5v2a.5.5,0,0,0,.5.5h.5v1h-3v-1h.5a.5.5,0,0,0,.5-.5v-2a.5.5,0,0,0-.5-.5h-4a.5.5,0,0,0-.5.5v2a.5.5,0,0,0,.5.5h.5v1h-2V2154a.42.42,0,0,1,.13-.3.52.52,0,0,1,.37-.15h0l18,0a.48.48,0,0,1,.5.45v4.52h-2Zm-8-.5a.5.5,0,0,0-.5-.5h-.5v-1h3v1h-.5a.5.5,0,0,0-.5.5v1.5h-1Zm-6,0a.5.5,0,0,0-.5-.5h-.5v-1h3v1h-.5a.5.5,0,0,0-.5.5v1.5h-1Zm48,1.5v-7h15v7Zm15-8h-15v-9h15Zm-16-9v3h-53v-3Z" transform="translate(-2038.96 -2060.42)"/><rect class="cls-2" x="34.92" y="82.17" width="2" height="1"/><rect class="cls-2" x="37.92" y="82.17" width="1" height="1"/><rect class="cls-2" x="39.92" y="82.17" width="1" height="1"/><rect class="cls-2" x="78.92" y="82.17" width="6" height="1"/><rect class="cls-2" x="70.92" y="82.17" width="6" height="1"/><path class="cls-2" d="M2127.84,2149.58h12a.5.5,0,0,0,.5-.5v-6a.5.5,0,0,0-.5-.5h-12a.5.5,0,0,0-.5.5v6A.5.5,0,0,0,2127.84,2149.58Zm.5-2h1v1h-1Zm9-1h-1v-1h1Zm1-1h1v1h-1Zm-6,2h1v1h-1Zm-1,1h-1v-1h1Zm2-2h-1v-1h1Zm1-1h1v1h-1Zm0,2h1v1h-1Zm2,0h1v1h-1Zm0-3v-1h1v1Zm-1,0h-1v-1h1Zm-2,0h-1v-1h1Zm-2,0h-1v-1h1Zm0,1v1h-1v-1Zm-2,1h-1v-1h1Zm9,2v-1h1v1Zm1-4h-1v-1h1Zm-10-1v1h-1v-1Z" transform="translate(-2038.96 -2060.42)"/><path class="cls-2" d="M2130.84,2152.58h-2a.5.5,0,0,0-.5.5v4a.5.5,0,0,0,.5.5h2a.5.5,0,0,0,.5-.5v-4A.5.5,0,0,0,2130.84,2152.58Zm-.5,4h-1v-3h1Z" transform="translate(-2038.96 -2060.42)"/><path class="cls-2" d="M2134.84,2152.58h-2a.5.5,0,0,0-.5.5v4a.5.5,0,0,0,.5.5h2a.5.5,0,0,0,.5-.5v-4A.5.5,0,0,0,2134.84,2152.58Zm-.5,4h-1v-3h1Z" transform="translate(-2038.96 -2060.42)"/><path class="cls-2" d="M2138.84,2152.58h-2a.5.5,0,0,0-.5.5v4a.5.5,0,0,0,.5.5h2a.5.5,0,0,0,.5-.5v-4A.5.5,0,0,0,2138.84,2152.58Zm-.5,4h-1v-3h1Z" transform="translate(-2038.96 -2060.42)"/></g></g><g id="server"><g id="main"><path class="cls-4" d="M2162.45,2141.31a1.46,1.46,0,1,0,1.46,1.46A1.47,1.47,0,0,0,2162.45,2141.31Zm4.39-2.93v8.78h-8.78v-8.78Z" transform="translate(-2038.96 -2060.42)"/><path class="cls-4" d="M2166.84,2153v8.78h-8.78V2153Zm-4.39,5.85a1.46,1.46,0,1,0-1.46-1.46A1.46,1.46,0,0,0,2162.45,2158.87Z" transform="translate(-2038.96 -2060.42)"/><rect class="cls-4" x="113.24" y="85.28" width="2.93" height="2.93"/><rect class="cls-4" x="113.24" y="82.35" width="2.93" height="2.93"/><rect class="cls-4" x="113.24" y="79.42" width="2.93" height="2.93"/><rect class="cls-5" x="111.78" y="94.06" width="2.93" height="5.85"/><rect class="cls-4" x="110.31" y="85.28" width="2.93" height="2.93"/><rect class="cls-4" x="110.31" y="82.35" width="2.93" height="2.93"/><rect class="cls-4" x="110.31" y="79.42" width="2.93" height="2.93"/><rect class="cls-4" x="107.39" y="85.28" width="2.93" height="2.93"/><rect class="cls-4" x="107.39" y="82.35" width="2.93" height="2.93"/><rect class="cls-4" x="107.39" y="79.42" width="2.93" height="2.93"/><rect class="cls-5" x="105.92" y="94.06" width="2.93" height="5.85"/><rect class="cls-4" x="104.46" y="85.28" width="2.93" height="2.93"/><rect class="cls-4" x="104.46" y="82.35" width="2.93" height="2.93"/><rect class="cls-4" x="104.46" y="79.42" width="2.93" height="2.93"/><rect class="cls-4" x="101.53" y="85.28" width="2.93" height="2.93"/><rect class="cls-4" x="101.53" y="82.35" width="2.93" height="2.93"/><rect class="cls-4" x="101.53" y="79.42" width="2.93" height="2.93"/><rect class="cls-5" x="100.07" y="94.06" width="2.93" height="5.85"/><rect class="cls-4" x="98.61" y="85.28" width="2.93" height="2.93"/><rect class="cls-4" x="98.61" y="82.35" width="2.93" height="2.93"/><rect class="cls-4" x="98.61" y="79.42" width="2.93" height="2.93"/><path class="cls-6" d="M2147.81,2154.48h-2.93v5.85h2.93Zm-8.78,5.85H2142v-5.85H2139Zm-4.39-8.78h23.41v11.71h-23.41Zm19,2.93h-2.93v5.85h2.93Z" transform="translate(-2038.96 -2060.42)"/><path class="cls-6" d="M2134.64,2136.92h23.41v14.63h-23.41v-14.63Zm20.49,8.78v-5.85h-17.56v8.78h17.56Z" transform="translate(-2038.96 -2060.42)"/><polygon class="cls-7" points="86.9 99.91 86.9 102.84 83.97 102.84 83.97 99.91 82.51 99.91 82.51 96.98 88.36 96.98 88.36 99.91 86.9 99.91"/><polygon class="cls-7" points="86.9 85.28 88.36 85.28 88.36 88.2 82.51 88.2 82.51 85.28 83.97 85.28 83.97 82.35 86.9 82.35 86.9 85.28"/><polygon class="cls-7" points="75.19 102.84 75.19 99.91 73.73 99.91 73.73 96.98 79.58 96.98 79.58 99.91 78.12 99.91 78.12 102.84 75.19 102.84"/><polygon class="cls-7" points="75.19 85.28 75.19 82.35 78.12 82.35 78.12 85.28 79.58 85.28 79.58 88.2 73.73 88.2 73.73 85.28 75.19 85.28"/><polygon class="cls-7" points="66.41 102.84 66.41 99.91 64.95 99.91 64.95 96.98 70.8 96.98 70.8 99.91 69.34 99.91 69.34 102.84 66.41 102.84"/><polygon class="cls-7" points="66.41 85.28 66.41 82.35 69.34 82.35 69.34 85.28 70.8 85.28 70.8 88.2 64.95 88.2 64.95 85.28 66.41 85.28"/><polygon class="cls-7" points="57.63 102.84 57.63 99.91 56.17 99.91 56.17 96.98 62.02 96.98 62.02 99.91 60.56 99.91 60.56 102.84 57.63 102.84"/><polygon class="cls-7" points="60.56 82.35 60.56 85.28 62.02 85.28 62.02 88.2 56.17 88.2 56.17 85.28 57.63 85.28 57.63 82.35 60.56 82.35"/><path class="cls-8" d="M2118.54,2148.62v-2.93h-1.46v-2.93h5.85v2.93h-1.46v2.93h5.85v-2.93h-1.46v-2.93h4.39v7.35a1.41,1.41,0,0,1-1.46,1.38l-35.11.06a1.44,1.44,0,0,1-1.48-1.39v-7.39h4.39v2.93h-1.46v2.93H2101v-2.93h-1.46v-2.93h5.85v2.93h-1.46v2.93h5.85v-2.93h-1.46v-2.93h5.85v2.93h-1.46v2.93Z" transform="translate(-2038.96 -2060.42)"/><path class="cls-8" d="M2101,2160.33v-2.93h-5.85v2.93h1.46v2.93h-4.39v-7.39a1.43,1.43,0,0,1,1.48-1.39l35.11,0a1.43,1.43,0,0,1,1.46,1.39v7.35h-4.39v-2.93h1.46v-2.93h-5.85v2.93h1.46v2.93h-5.85v-2.93h1.46v-2.93h-5.85v2.93h1.46v2.93h-5.85v-2.93h1.46v-2.93h-5.85v2.93h1.46v2.93h-5.85v-2.93Z" transform="translate(-2038.96 -2060.42)"/><polygon class="cls-7" points="43 99.91 41.53 99.91 41.53 96.98 47.39 96.98 47.39 99.91 45.92 99.91 45.92 102.84 43 102.84 43 99.91"/><polygon class="cls-7" points="43 82.35 45.92 82.35 45.92 85.28 47.39 85.28 47.39 88.2 41.53 88.2 41.53 85.28 43 85.28 43 82.35"/><polygon class="cls-7" points="37.14 99.91 37.14 102.84 34.22 102.84 34.22 99.91 32.75 99.91 32.75 96.98 38.61 96.98 38.61 99.91 37.14 99.91"/><polygon class="cls-7" points="34.22 85.28 34.22 82.35 37.14 82.35 37.14 85.28 38.61 85.28 38.61 88.2 32.75 88.2 32.75 85.28 34.22 85.28"/><polygon class="cls-7" points="25.44 102.84 25.44 99.91 23.97 99.91 23.97 96.98 29.83 96.98 29.83 99.91 28.36 99.91 28.36 102.84 25.44 102.84"/><polygon class="cls-7" points="25.44 82.35 28.36 82.35 28.36 85.28 29.83 85.28 29.83 88.2 23.97 88.2 23.97 85.28 25.44 85.28 25.44 82.35"/><path class="cls-8" d="M2062.93,2145.7v2.93h5.85v-2.93h-1.46v-2.93h5.85v2.93h-1.46v2.93h5.85v-2.93h-1.46v-2.93H2082v2.93h-1.46v2.93h5.85v-2.93h-1.46v-2.93h4.39v7.35a1.41,1.41,0,0,1-1.46,1.38l-26.33.06a1.44,1.44,0,0,1-1.48-1.39v-7.39h4.39v2.93Z" transform="translate(-2038.96 -2060.42)"/><path class="cls-8" d="M2064.4,2160.33v2.93H2060v-7.39a1.43,1.43,0,0,1,1.48-1.39l26.33,0a1.43,1.43,0,0,1,1.46,1.39v7.35h-4.39v-2.93h1.46v-2.93h-5.85v2.93H2082v2.93h-5.85v-2.93h1.46v-2.93h-5.85v2.93h1.46v2.93h-5.85v-2.93h1.46v-2.93h-5.85v2.93Z" transform="translate(-2038.96 -2060.42)"/><path class="cls-6" d="M2089.27,2155.91a1.43,1.43,0,0,0-1.46-1.39l-26.33,0a1.43,1.43,0,0,0-1.48,1.39v7.39h-4.39v-20.49H2060v7.39a1.44,1.44,0,0,0,1.48,1.39l26.33-.06a1.41,1.41,0,0,0,1.46-1.38v-7.35h2.93v7.39a1.44,1.44,0,0,0,1.48,1.39l35.11-.06a1.41,1.41,0,0,0,1.46-1.38v-7.35h4.39v20.49h-4.39v-7.35a1.43,1.43,0,0,0-1.46-1.39l-35.11,0a1.43,1.43,0,0,0-1.48,1.39v7.39h-2.93Z" transform="translate(-2038.96 -2060.42)"/><polygon class="cls-6" points="16.66 76.5 95.68 76.5 95.68 82.35 91.29 82.35 86.9 82.35 83.97 82.35 78.12 82.35 75.19 82.35 69.34 82.35 66.41 82.35 60.56 82.35 57.63 82.35 53.24 82.35 50.31 82.35 45.92 82.35 43 82.35 37.14 82.35 34.22 82.35 28.36 82.35 25.44 82.35 21.05 82.35 16.66 82.35 16.66 77.96 16.66 76.5"/><path class="cls-4" d="M2046.84,2153h8.78v8.78h-8.78Zm2.93,4.39a1.46,1.46,0,1,0,1.46-1.46A1.47,1.47,0,0,0,2049.76,2157.4Z" transform="translate(-2038.96 -2060.42)"/><path class="cls-4" d="M2046.84,2138.38h8.78v8.78h-8.78Zm4.39,2.93a1.46,1.46,0,1,0,1.46,1.46A1.47,1.47,0,0,0,2051.23,2141.31Z" transform="translate(-2038.96 -2060.42)"/></g><g id="Layer_196" data-name="Layer 196"><polygon class="cls-1" points="119.1 77.96 121.22 77.96 121.22 86.74 118.84 86.74 119.1 77.96"/><polygon class="cls-1" points="119.1 92.59 121.22 92.59 121.22 101.37 118.84 101.37 119.1 92.59"/><rect class="cls-1" x="16.66" y="81.88" width="79.02" height="1.76"/></g><g id="main_lines" data-name="main lines"><rect class="cls-9" x="16.66" y="76.49" width="102.44" height="26.34"/><line class="cls-10" x1="95.69" y1="76.49" x2="95.69" y2="102.84"/><line class="cls-10" x1="95.69" y1="82.35" x2="16.66" y2="82.35"/><polyline class="cls-10" points="28.37 82.35 28.36 85.28 29.83 85.28 29.83 88.2 23.97 88.2 23.97 85.28 25.44 85.28 25.44 82.35"/><polyline class="cls-10" points="37.15 82.35 37.14 85.28 38.61 85.28 38.61 88.2 32.75 88.2 32.75 85.28 34.22 85.28 34.22 82.35"/><polyline class="cls-10" points="45.93 82.35 45.92 85.28 47.39 85.28 47.39 88.2 41.53 88.2 41.53 85.28 43 85.28 43 82.35"/><path class="cls-10" d="M2060,2142.77v7.39a1.43,1.43,0,0,0,1.47,1.39l26.34,0a1.43,1.43,0,0,0,1.46-1.39v-7.34" transform="translate(-2038.96 -2060.42)"/><polyline class="cls-10" points="60.56 82.35 60.56 85.28 62.02 85.28 62.02 88.2 56.17 88.2 56.17 85.28 57.63 85.28 57.64 82.35"/><polyline class="cls-10" points="69.34 82.35 69.34 85.28 70.8 85.28 70.8 88.2 64.95 88.2 64.95 85.28 66.41 85.28 66.42 82.35"/><polyline class="cls-10" points="78.13 82.35 78.12 85.28 79.58 85.28 79.58 88.2 73.73 88.2 73.73 85.28 75.19 85.28 75.2 82.35"/><path class="cls-10" d="M2092.21,2142.77v7.39a1.43,1.43,0,0,0,1.47,1.39l35.12,0a1.43,1.43,0,0,0,1.46-1.39v-7.34" transform="translate(-2038.96 -2060.42)"/><polyline class="cls-10" points="86.91 82.35 86.9 85.28 88.36 85.28 88.36 88.2 82.51 88.2 82.51 85.28 83.97 85.28 83.98 82.35"/><line class="cls-11" x1="19.65" y1="79.42" x2="22.58" y2="79.42"/><line class="cls-11" x1="24.04" y1="79.42" x2="25.5" y2="79.42"/><line class="cls-11" x1="26.97" y1="79.42" x2="28.43" y2="79.42"/><line class="cls-11" x1="84.04" y1="79.42" x2="92.82" y2="79.42"/><line class="cls-11" x1="72.33" y1="79.42" x2="81.11" y2="79.42"/><line class="cls-11" x1="95.69" y1="91.13" x2="119.1" y2="91.13"/><polyline class="cls-10" points="28.37 102.83 28.36 99.91 29.83 99.91 29.83 96.98 23.97 96.98 23.97 99.91 25.44 99.91 25.44 102.83"/><polyline class="cls-10" points="37.15 102.83 37.14 99.91 38.61 99.91 38.61 96.98 32.75 96.98 32.75 99.91 34.22 99.91 34.22 102.83"/><polyline class="cls-10" points="45.93 102.83 45.92 99.91 47.39 99.91 47.39 96.98 41.53 96.98 41.53 99.91 43 99.91 43 102.83"/><path class="cls-10" d="M2060,2163.26v-7.39a1.43,1.43,0,0,1,1.47-1.39l26.34,0a1.43,1.43,0,0,1,1.46,1.39v7.34" transform="translate(-2038.96 -2060.42)"/><polyline class="cls-10" points="60.56 102.83 60.56 99.91 62.02 99.91 62.02 96.98 56.17 96.98 56.17 99.91 57.63 99.91 57.64 102.83"/><polyline class="cls-10" points="69.34 102.83 69.34 99.91 70.8 99.91 70.8 96.98 64.95 96.98 64.95 99.91 66.41 99.91 66.42 102.83"/><polyline class="cls-10" points="78.13 102.83 78.12 99.91 79.58 99.91 79.58 96.98 73.73 96.98 73.73 99.91 75.19 99.91 75.2 102.83"/><path class="cls-10" d="M2092.21,2163.26v-7.39a1.43,1.43,0,0,1,1.47-1.39l35.12,0a1.43,1.43,0,0,1,1.46,1.39v7.34" transform="translate(-2038.96 -2060.42)"/><polyline class="cls-10" points="86.91 102.83 86.9 99.91 88.36 99.91 88.36 96.98 82.51 96.98 82.51 99.91 83.97 99.91 83.98 102.83"/><rect class="cls-11" x="98.61" y="79.42" width="17.56" height="8.78"/><line class="cls-11" x1="101.54" y1="79.42" x2="101.54" y2="88.2"/><line class="cls-11" x1="104.47" y1="79.42" x2="104.47" y2="88.2"/><line class="cls-11" x1="107.39" y1="79.42" x2="107.39" y2="88.2"/><line class="cls-11" x1="110.32" y1="79.42" x2="110.32" y2="88.2"/><line class="cls-11" x1="113.25" y1="79.42" x2="113.25" y2="88.2"/><line class="cls-11" x1="98.61" y1="82.35" x2="116.17" y2="82.35"/><line class="cls-11" x1="98.61" y1="85.27" x2="116.17" y2="85.27"/><rect class="cls-10" x="100.08" y="94.05" width="2.93" height="5.85"/><rect class="cls-10" x="105.93" y="94.05" width="2.93" height="5.85"/><rect class="cls-10" x="111.78" y="94.05" width="2.93" height="5.85"/><polyline class="cls-12" points="119.1 77.96 127.88 77.96 127.88 86.74 119.1 86.74"/><polyline class="cls-12" points="119.1 92.59 127.88 92.59 127.88 101.37 119.1 101.37"/><circle class="cls-11" cx="123.49" cy="82.35" r="1.46"/><circle class="cls-11" cx="123.49" cy="96.98" r="1.46"/><polyline class="cls-12" points="16.66 101.37 7.88 101.37 7.88 92.59 16.66 92.59"/><polyline class="cls-12" points="16.66 86.74 7.88 86.74 7.88 77.96 16.66 77.96"/><circle class="cls-11" cx="12.27" cy="96.98" r="1.46"/><circle class="cls-11" cx="12.27" cy="82.35" r="1.46"/></g></g></svg>